%
M48
M72
T01C0.0240
T02C0.0320
T03C0.0360
T04C0.0400
T05C0.0472
%
T01
X900Y2260
X2180Y3620
X1220Y4420
X2100Y5540
X980Y5940
X1700Y8980
X1300Y9300
X3380Y7780
X3780Y6820
X4660Y7700
X4740Y7220
X4820Y6580
X5380Y6820
X6180Y6340
X6980Y7540
X7380Y6580
X8100Y6340
X8580Y6340
X8900Y7140
X8340Y7540
X7860Y7700
X8900Y8500
X9300Y7940
X9220Y11060
X9700Y11460
X10100Y13540
X9780Y14340
X10580Y16420
X11780Y15060
X13060Y15860
X14980Y14900
X11780Y11460
X12020Y9540
X12100Y6100
X11300Y5780
X11460Y4100
X11300Y3140
X10100Y900
X9620Y900
X8740Y900
X5860Y2500
X4820Y2340
X3540Y4820
X2980Y1860
X6100Y9940
X4980Y10660
X7060Y11140
X7060Y12740
X8260Y12340
X5700Y17380
X6580Y18820
X8100Y18900
X9700Y18980
X10980Y21300
X5540Y22980
X2980Y14900
X4100Y14500
X12740Y3540
X13060Y2660
X12740Y2260
X13860Y4100
X13060Y4500
X14980Y2660
X15380Y2980
X15380Y3700
X16340Y4180
X15060Y7700
X15460Y8900
X15860Y8500
T02
X14600Y9100
X13600Y9100
X13100Y8100
X12100Y8100
X11600Y9100
X12100Y10100
X13100Y10100
X14600Y13600
X15600Y13600
X13100Y19850
X12100Y19850
X12100Y22100
X13100Y22100
X13100Y24350
X12100Y24350
X10600Y22100
X9600Y22100
X7600Y22100
X6600Y22100
X5100Y22100
X4100Y22100
X4100Y19850
X5100Y19850
X2600Y22100
X1600Y22100
X4100Y24350
X5100Y24350
X8100Y15600
X9100Y15600
X9100Y9100
X8100Y9100
X6600Y9100
X5600Y9100
X5100Y8100
X4100Y8100
X3600Y9100
X4100Y10100
X5100Y10100
X2600Y9100
X2600Y4850
X1600Y4850
X1600Y13600
X2600Y13600
X10600Y9100
X14600Y4850
X15600Y4850
X15600Y22100
X14600Y22100
T03
X9600Y25600
X9600Y26600
X8600Y26600
X8600Y25600
X7600Y25600
X7600Y26600
T04
X14600Y26600
X15600Y26600
X16600Y26600
T05
X2478Y26100
X1100Y26100
M30
