G75*
G70*
%OFA0B0*%
%FSLAX24Y24*%
%IPPOS*%
%LPD*%
%AMOC8*
5,1,8,0,0,1.08239X$1,22.5*
%
%ADD10C,0.0000*%
%ADD11C,0.0030*%
%ADD12C,0.0060*%
%ADD13C,0.0040*%
%ADD14C,0.0100*%
%ADD15C,0.0050*%
%ADD16C,0.0160*%
%ADD17C,0.0080*%
D10*
X000100Y000100D02*
X000100Y027596D01*
X017470Y027596D01*
X017470Y000100D01*
X000100Y000100D01*
D11*
X007425Y003115D02*
X007425Y003405D01*
X007522Y003308D01*
X007618Y003405D01*
X007618Y003115D01*
X007720Y003115D02*
X007913Y003115D01*
X008014Y003163D02*
X008014Y003357D01*
X008063Y003405D01*
X008159Y003405D01*
X008208Y003357D01*
X008208Y003260D02*
X008111Y003260D01*
X008208Y003260D02*
X008208Y003163D01*
X008159Y003115D01*
X008063Y003115D01*
X008014Y003163D01*
X007816Y003260D02*
X007720Y003260D01*
X007720Y003405D02*
X007720Y003115D01*
X007720Y003405D02*
X007913Y003405D01*
X008309Y003308D02*
X008309Y003115D01*
X008309Y003260D02*
X008502Y003260D01*
X008502Y003308D02*
X008502Y003115D01*
X008604Y003163D02*
X008604Y003212D01*
X008652Y003260D01*
X008749Y003260D01*
X008797Y003212D01*
X008797Y003163D01*
X008749Y003115D01*
X008652Y003115D01*
X008604Y003163D01*
X008652Y003260D02*
X008604Y003308D01*
X008604Y003357D01*
X008652Y003405D01*
X008749Y003405D01*
X008797Y003357D01*
X008797Y003308D01*
X008749Y003260D01*
X008898Y003260D02*
X009092Y003260D01*
X009193Y003260D02*
X009386Y003260D01*
X009386Y003308D02*
X009386Y003115D01*
X009488Y003115D02*
X009584Y003115D01*
X009536Y003115D02*
X009536Y003405D01*
X009488Y003405D02*
X009584Y003405D01*
X009386Y003308D02*
X009290Y003405D01*
X009193Y003308D01*
X009193Y003115D01*
X008502Y003308D02*
X008406Y003405D01*
X008309Y003308D01*
X002787Y025115D02*
X002602Y025115D01*
X002602Y025485D01*
X002787Y025485D01*
X002849Y025424D01*
X002849Y025177D01*
X002787Y025115D01*
X002480Y025115D02*
X002480Y025485D01*
X002233Y025485D02*
X002480Y025115D01*
X002233Y025115D02*
X002233Y025485D01*
X002112Y025424D02*
X002050Y025485D01*
X001927Y025485D01*
X001865Y025424D01*
X001865Y025177D01*
X001927Y025115D01*
X002050Y025115D01*
X002112Y025177D01*
X002112Y025300D01*
X001988Y025300D01*
X001599Y025238D02*
X001475Y025115D01*
X001352Y025238D01*
X001352Y025485D01*
X001230Y025485D02*
X000983Y025485D01*
X000983Y025300D01*
X001107Y025362D01*
X001168Y025362D01*
X001230Y025300D01*
X001230Y025177D01*
X001168Y025115D01*
X001045Y025115D01*
X000983Y025177D01*
X000862Y025300D02*
X000615Y025300D01*
X000738Y025177D02*
X000738Y025424D01*
X001599Y025485D02*
X001599Y025238D01*
D12*
X002574Y021732D02*
X002544Y021697D01*
X002513Y021664D01*
X002478Y021634D01*
X002442Y021607D01*
X002404Y021583D01*
X002364Y021561D01*
X002322Y021543D01*
X002279Y021527D01*
X002235Y021515D01*
X002191Y021507D01*
X002145Y021502D01*
X002100Y021500D01*
X001620Y022460D02*
X001649Y022496D01*
X001681Y022530D01*
X001716Y022561D01*
X001752Y022589D01*
X001791Y022614D01*
X001832Y022637D01*
X001874Y022656D01*
X001917Y022672D01*
X001962Y022684D01*
X002008Y022693D01*
X002054Y022698D01*
X002100Y022700D01*
X001626Y021732D02*
X001656Y021697D01*
X001687Y021664D01*
X001722Y021634D01*
X001758Y021607D01*
X001796Y021583D01*
X001836Y021561D01*
X001878Y021543D01*
X001921Y021527D01*
X001965Y021515D01*
X002009Y021507D01*
X002055Y021502D01*
X002100Y021500D01*
X002588Y022449D02*
X002559Y022486D01*
X002527Y022521D01*
X002492Y022554D01*
X002455Y022584D01*
X002416Y022610D01*
X002375Y022633D01*
X002331Y022654D01*
X002287Y022670D01*
X002241Y022683D01*
X002195Y022692D01*
X002147Y022698D01*
X002100Y022700D01*
X004600Y022700D02*
X004647Y022698D01*
X004695Y022692D01*
X004741Y022683D01*
X004787Y022670D01*
X004831Y022654D01*
X004875Y022633D01*
X004916Y022610D01*
X004955Y022584D01*
X004992Y022554D01*
X005027Y022521D01*
X005059Y022486D01*
X005088Y022449D01*
X004600Y021500D02*
X004555Y021502D01*
X004509Y021507D01*
X004465Y021515D01*
X004421Y021527D01*
X004378Y021543D01*
X004336Y021561D01*
X004296Y021583D01*
X004258Y021607D01*
X004222Y021634D01*
X004187Y021664D01*
X004156Y021697D01*
X004126Y021732D01*
X004600Y021500D02*
X004645Y021502D01*
X004691Y021507D01*
X004735Y021515D01*
X004779Y021527D01*
X004822Y021543D01*
X004864Y021561D01*
X004904Y021583D01*
X004942Y021607D01*
X004978Y021634D01*
X005013Y021664D01*
X005044Y021697D01*
X005074Y021732D01*
X004600Y022700D02*
X004554Y022698D01*
X004508Y022693D01*
X004462Y022684D01*
X004417Y022672D01*
X004374Y022656D01*
X004332Y022637D01*
X004291Y022614D01*
X004252Y022589D01*
X004216Y022561D01*
X004181Y022530D01*
X004149Y022496D01*
X004120Y022460D01*
X005088Y024699D02*
X005059Y024736D01*
X005027Y024771D01*
X004992Y024804D01*
X004955Y024834D01*
X004916Y024860D01*
X004875Y024883D01*
X004831Y024904D01*
X004787Y024920D01*
X004741Y024933D01*
X004695Y024942D01*
X004647Y024948D01*
X004600Y024950D01*
X004126Y023982D02*
X004156Y023947D01*
X004187Y023914D01*
X004222Y023884D01*
X004258Y023857D01*
X004296Y023833D01*
X004336Y023811D01*
X004378Y023793D01*
X004421Y023777D01*
X004465Y023765D01*
X004509Y023757D01*
X004555Y023752D01*
X004600Y023750D01*
X004120Y024710D02*
X004149Y024746D01*
X004181Y024780D01*
X004216Y024811D01*
X004252Y024839D01*
X004291Y024864D01*
X004332Y024887D01*
X004374Y024906D01*
X004417Y024922D01*
X004462Y024934D01*
X004508Y024943D01*
X004554Y024948D01*
X004600Y024950D01*
X005074Y023982D02*
X005044Y023947D01*
X005013Y023914D01*
X004978Y023884D01*
X004942Y023857D01*
X004904Y023833D01*
X004864Y023811D01*
X004822Y023793D01*
X004779Y023777D01*
X004735Y023765D01*
X004691Y023757D01*
X004645Y023752D01*
X004600Y023750D01*
X004126Y019482D02*
X004156Y019447D01*
X004187Y019414D01*
X004222Y019384D01*
X004258Y019357D01*
X004296Y019333D01*
X004336Y019311D01*
X004378Y019293D01*
X004421Y019277D01*
X004465Y019265D01*
X004509Y019257D01*
X004555Y019252D01*
X004600Y019250D01*
X004120Y020210D02*
X004149Y020246D01*
X004181Y020280D01*
X004216Y020311D01*
X004252Y020339D01*
X004291Y020364D01*
X004332Y020387D01*
X004374Y020406D01*
X004417Y020422D01*
X004462Y020434D01*
X004508Y020443D01*
X004554Y020448D01*
X004600Y020450D01*
X005074Y019482D02*
X005044Y019447D01*
X005013Y019414D01*
X004978Y019384D01*
X004942Y019357D01*
X004904Y019333D01*
X004864Y019311D01*
X004822Y019293D01*
X004779Y019277D01*
X004735Y019265D01*
X004691Y019257D01*
X004645Y019252D01*
X004600Y019250D01*
X005088Y020199D02*
X005059Y020236D01*
X005027Y020271D01*
X004992Y020304D01*
X004955Y020334D01*
X004916Y020360D01*
X004875Y020383D01*
X004831Y020404D01*
X004787Y020420D01*
X004741Y020433D01*
X004695Y020442D01*
X004647Y020448D01*
X004600Y020450D01*
X007100Y022700D02*
X007147Y022698D01*
X007195Y022692D01*
X007241Y022683D01*
X007287Y022670D01*
X007331Y022654D01*
X007375Y022633D01*
X007416Y022610D01*
X007455Y022584D01*
X007492Y022554D01*
X007527Y022521D01*
X007559Y022486D01*
X007588Y022449D01*
X007100Y021500D02*
X007055Y021502D01*
X007009Y021507D01*
X006965Y021515D01*
X006921Y021527D01*
X006878Y021543D01*
X006836Y021561D01*
X006796Y021583D01*
X006758Y021607D01*
X006722Y021634D01*
X006687Y021664D01*
X006656Y021697D01*
X006626Y021732D01*
X007100Y021500D02*
X007145Y021502D01*
X007191Y021507D01*
X007235Y021515D01*
X007279Y021527D01*
X007322Y021543D01*
X007364Y021561D01*
X007404Y021583D01*
X007442Y021607D01*
X007478Y021634D01*
X007513Y021664D01*
X007544Y021697D01*
X007574Y021732D01*
X007100Y022700D02*
X007054Y022698D01*
X007008Y022693D01*
X006962Y022684D01*
X006917Y022672D01*
X006874Y022656D01*
X006832Y022637D01*
X006791Y022614D01*
X006752Y022589D01*
X006716Y022561D01*
X006681Y022530D01*
X006649Y022496D01*
X006620Y022460D01*
X010100Y022700D02*
X010147Y022698D01*
X010195Y022692D01*
X010241Y022683D01*
X010287Y022670D01*
X010331Y022654D01*
X010375Y022633D01*
X010416Y022610D01*
X010455Y022584D01*
X010492Y022554D01*
X010527Y022521D01*
X010559Y022486D01*
X010588Y022449D01*
X010100Y021500D02*
X010055Y021502D01*
X010009Y021507D01*
X009965Y021515D01*
X009921Y021527D01*
X009878Y021543D01*
X009836Y021561D01*
X009796Y021583D01*
X009758Y021607D01*
X009722Y021634D01*
X009687Y021664D01*
X009656Y021697D01*
X009626Y021732D01*
X010100Y021500D02*
X010145Y021502D01*
X010191Y021507D01*
X010235Y021515D01*
X010279Y021527D01*
X010322Y021543D01*
X010364Y021561D01*
X010404Y021583D01*
X010442Y021607D01*
X010478Y021634D01*
X010513Y021664D01*
X010544Y021697D01*
X010574Y021732D01*
X010100Y022700D02*
X010054Y022698D01*
X010008Y022693D01*
X009962Y022684D01*
X009917Y022672D01*
X009874Y022656D01*
X009832Y022637D01*
X009791Y022614D01*
X009752Y022589D01*
X009716Y022561D01*
X009681Y022530D01*
X009649Y022496D01*
X009620Y022460D01*
X012600Y022700D02*
X012647Y022698D01*
X012695Y022692D01*
X012741Y022683D01*
X012787Y022670D01*
X012831Y022654D01*
X012875Y022633D01*
X012916Y022610D01*
X012955Y022584D01*
X012992Y022554D01*
X013027Y022521D01*
X013059Y022486D01*
X013088Y022449D01*
X012600Y021500D02*
X012555Y021502D01*
X012509Y021507D01*
X012465Y021515D01*
X012421Y021527D01*
X012378Y021543D01*
X012336Y021561D01*
X012296Y021583D01*
X012258Y021607D01*
X012222Y021634D01*
X012187Y021664D01*
X012156Y021697D01*
X012126Y021732D01*
X012600Y021500D02*
X012645Y021502D01*
X012691Y021507D01*
X012735Y021515D01*
X012779Y021527D01*
X012822Y021543D01*
X012864Y021561D01*
X012904Y021583D01*
X012942Y021607D01*
X012978Y021634D01*
X013013Y021664D01*
X013044Y021697D01*
X013074Y021732D01*
X012600Y022700D02*
X012554Y022698D01*
X012508Y022693D01*
X012462Y022684D01*
X012417Y022672D01*
X012374Y022656D01*
X012332Y022637D01*
X012291Y022614D01*
X012252Y022589D01*
X012216Y022561D01*
X012181Y022530D01*
X012149Y022496D01*
X012120Y022460D01*
X013088Y024699D02*
X013059Y024736D01*
X013027Y024771D01*
X012992Y024804D01*
X012955Y024834D01*
X012916Y024860D01*
X012875Y024883D01*
X012831Y024904D01*
X012787Y024920D01*
X012741Y024933D01*
X012695Y024942D01*
X012647Y024948D01*
X012600Y024950D01*
X012126Y023982D02*
X012156Y023947D01*
X012187Y023914D01*
X012222Y023884D01*
X012258Y023857D01*
X012296Y023833D01*
X012336Y023811D01*
X012378Y023793D01*
X012421Y023777D01*
X012465Y023765D01*
X012509Y023757D01*
X012555Y023752D01*
X012600Y023750D01*
X012120Y024710D02*
X012149Y024746D01*
X012181Y024780D01*
X012216Y024811D01*
X012252Y024839D01*
X012291Y024864D01*
X012332Y024887D01*
X012374Y024906D01*
X012417Y024922D01*
X012462Y024934D01*
X012508Y024943D01*
X012554Y024948D01*
X012600Y024950D01*
X013074Y023982D02*
X013044Y023947D01*
X013013Y023914D01*
X012978Y023884D01*
X012942Y023857D01*
X012904Y023833D01*
X012864Y023811D01*
X012822Y023793D01*
X012779Y023777D01*
X012735Y023765D01*
X012691Y023757D01*
X012645Y023752D01*
X012600Y023750D01*
X015100Y022700D02*
X015147Y022698D01*
X015195Y022692D01*
X015241Y022683D01*
X015287Y022670D01*
X015331Y022654D01*
X015375Y022633D01*
X015416Y022610D01*
X015455Y022584D01*
X015492Y022554D01*
X015527Y022521D01*
X015559Y022486D01*
X015588Y022449D01*
X015100Y021500D02*
X015055Y021502D01*
X015009Y021507D01*
X014965Y021515D01*
X014921Y021527D01*
X014878Y021543D01*
X014836Y021561D01*
X014796Y021583D01*
X014758Y021607D01*
X014722Y021634D01*
X014687Y021664D01*
X014656Y021697D01*
X014626Y021732D01*
X015100Y021500D02*
X015145Y021502D01*
X015191Y021507D01*
X015235Y021515D01*
X015279Y021527D01*
X015322Y021543D01*
X015364Y021561D01*
X015404Y021583D01*
X015442Y021607D01*
X015478Y021634D01*
X015513Y021664D01*
X015544Y021697D01*
X015574Y021732D01*
X015100Y022700D02*
X015054Y022698D01*
X015008Y022693D01*
X014962Y022684D01*
X014917Y022672D01*
X014874Y022656D01*
X014832Y022637D01*
X014791Y022614D01*
X014752Y022589D01*
X014716Y022561D01*
X014681Y022530D01*
X014649Y022496D01*
X014620Y022460D01*
X012600Y019250D02*
X012555Y019252D01*
X012509Y019257D01*
X012465Y019265D01*
X012421Y019277D01*
X012378Y019293D01*
X012336Y019311D01*
X012296Y019333D01*
X012258Y019357D01*
X012222Y019384D01*
X012187Y019414D01*
X012156Y019447D01*
X012126Y019482D01*
X012600Y020450D02*
X012647Y020448D01*
X012695Y020442D01*
X012741Y020433D01*
X012787Y020420D01*
X012831Y020404D01*
X012875Y020383D01*
X012916Y020360D01*
X012955Y020334D01*
X012992Y020304D01*
X013027Y020271D01*
X013059Y020236D01*
X013088Y020199D01*
X012600Y020450D02*
X012554Y020448D01*
X012508Y020443D01*
X012462Y020434D01*
X012417Y020422D01*
X012374Y020406D01*
X012332Y020387D01*
X012291Y020364D01*
X012252Y020339D01*
X012216Y020311D01*
X012181Y020280D01*
X012149Y020246D01*
X012120Y020210D01*
X012600Y019250D02*
X012645Y019252D01*
X012691Y019257D01*
X012735Y019265D01*
X012779Y019277D01*
X012822Y019293D01*
X012864Y019311D01*
X012904Y019333D01*
X012942Y019357D01*
X012978Y019384D01*
X013013Y019414D01*
X013044Y019447D01*
X013074Y019482D01*
X015100Y014200D02*
X015147Y014198D01*
X015195Y014192D01*
X015241Y014183D01*
X015287Y014170D01*
X015331Y014154D01*
X015375Y014133D01*
X015416Y014110D01*
X015455Y014084D01*
X015492Y014054D01*
X015527Y014021D01*
X015559Y013986D01*
X015588Y013949D01*
X015100Y013000D02*
X015055Y013002D01*
X015009Y013007D01*
X014965Y013015D01*
X014921Y013027D01*
X014878Y013043D01*
X014836Y013061D01*
X014796Y013083D01*
X014758Y013107D01*
X014722Y013134D01*
X014687Y013164D01*
X014656Y013197D01*
X014626Y013232D01*
X015100Y013000D02*
X015145Y013002D01*
X015191Y013007D01*
X015235Y013015D01*
X015279Y013027D01*
X015322Y013043D01*
X015364Y013061D01*
X015404Y013083D01*
X015442Y013107D01*
X015478Y013134D01*
X015513Y013164D01*
X015544Y013197D01*
X015574Y013232D01*
X015100Y014200D02*
X015054Y014198D01*
X015008Y014193D01*
X014962Y014184D01*
X014917Y014172D01*
X014874Y014156D01*
X014832Y014137D01*
X014791Y014114D01*
X014752Y014089D01*
X014716Y014061D01*
X014681Y014030D01*
X014649Y013996D01*
X014620Y013960D01*
X012600Y009500D02*
X012555Y009502D01*
X012509Y009507D01*
X012465Y009515D01*
X012421Y009527D01*
X012378Y009543D01*
X012336Y009561D01*
X012296Y009583D01*
X012258Y009607D01*
X012222Y009634D01*
X012187Y009664D01*
X012156Y009697D01*
X012126Y009732D01*
X012600Y010700D02*
X012647Y010698D01*
X012695Y010692D01*
X012741Y010683D01*
X012787Y010670D01*
X012831Y010654D01*
X012875Y010633D01*
X012916Y010610D01*
X012955Y010584D01*
X012992Y010554D01*
X013027Y010521D01*
X013059Y010486D01*
X013088Y010449D01*
X012600Y010700D02*
X012554Y010698D01*
X012508Y010693D01*
X012462Y010684D01*
X012417Y010672D01*
X012374Y010656D01*
X012332Y010637D01*
X012291Y010614D01*
X012252Y010589D01*
X012216Y010561D01*
X012181Y010530D01*
X012149Y010496D01*
X012120Y010460D01*
X012600Y009500D02*
X012645Y009502D01*
X012691Y009507D01*
X012735Y009515D01*
X012779Y009527D01*
X012822Y009543D01*
X012864Y009561D01*
X012904Y009583D01*
X012942Y009607D01*
X012978Y009634D01*
X013013Y009664D01*
X013044Y009697D01*
X013074Y009732D01*
X012126Y007732D02*
X012156Y007697D01*
X012187Y007664D01*
X012222Y007634D01*
X012258Y007607D01*
X012296Y007583D01*
X012336Y007561D01*
X012378Y007543D01*
X012421Y007527D01*
X012465Y007515D01*
X012509Y007507D01*
X012555Y007502D01*
X012600Y007500D01*
X012120Y008460D02*
X012149Y008496D01*
X012181Y008530D01*
X012216Y008561D01*
X012252Y008589D01*
X012291Y008614D01*
X012332Y008637D01*
X012374Y008656D01*
X012417Y008672D01*
X012462Y008684D01*
X012508Y008693D01*
X012554Y008698D01*
X012600Y008700D01*
X013074Y007732D02*
X013044Y007697D01*
X013013Y007664D01*
X012978Y007634D01*
X012942Y007607D01*
X012904Y007583D01*
X012864Y007561D01*
X012822Y007543D01*
X012779Y007527D01*
X012735Y007515D01*
X012691Y007507D01*
X012645Y007502D01*
X012600Y007500D01*
X013088Y008449D02*
X013059Y008486D01*
X013027Y008521D01*
X012992Y008554D01*
X012955Y008584D01*
X012916Y008610D01*
X012875Y008633D01*
X012831Y008654D01*
X012787Y008670D01*
X012741Y008683D01*
X012695Y008692D01*
X012647Y008698D01*
X012600Y008700D01*
X014100Y009700D02*
X014147Y009698D01*
X014195Y009692D01*
X014241Y009683D01*
X014287Y009670D01*
X014331Y009654D01*
X014375Y009633D01*
X014416Y009610D01*
X014455Y009584D01*
X014492Y009554D01*
X014527Y009521D01*
X014559Y009486D01*
X014588Y009449D01*
X014100Y008500D02*
X014055Y008502D01*
X014009Y008507D01*
X013965Y008515D01*
X013921Y008527D01*
X013878Y008543D01*
X013836Y008561D01*
X013796Y008583D01*
X013758Y008607D01*
X013722Y008634D01*
X013687Y008664D01*
X013656Y008697D01*
X013626Y008732D01*
X014100Y008500D02*
X014145Y008502D01*
X014191Y008507D01*
X014235Y008515D01*
X014279Y008527D01*
X014322Y008543D01*
X014364Y008561D01*
X014404Y008583D01*
X014442Y008607D01*
X014478Y008634D01*
X014513Y008664D01*
X014544Y008697D01*
X014574Y008732D01*
X014100Y009700D02*
X014054Y009698D01*
X014008Y009693D01*
X013962Y009684D01*
X013917Y009672D01*
X013874Y009656D01*
X013832Y009637D01*
X013791Y009614D01*
X013752Y009589D01*
X013716Y009561D01*
X013681Y009530D01*
X013649Y009496D01*
X013620Y009460D01*
X011100Y008500D02*
X011055Y008502D01*
X011009Y008507D01*
X010965Y008515D01*
X010921Y008527D01*
X010878Y008543D01*
X010836Y008561D01*
X010796Y008583D01*
X010758Y008607D01*
X010722Y008634D01*
X010687Y008664D01*
X010656Y008697D01*
X010626Y008732D01*
X011100Y009700D02*
X011147Y009698D01*
X011195Y009692D01*
X011241Y009683D01*
X011287Y009670D01*
X011331Y009654D01*
X011375Y009633D01*
X011416Y009610D01*
X011455Y009584D01*
X011492Y009554D01*
X011527Y009521D01*
X011559Y009486D01*
X011588Y009449D01*
X011100Y009700D02*
X011054Y009698D01*
X011008Y009693D01*
X010962Y009684D01*
X010917Y009672D01*
X010874Y009656D01*
X010832Y009637D01*
X010791Y009614D01*
X010752Y009589D01*
X010716Y009561D01*
X010681Y009530D01*
X010649Y009496D01*
X010620Y009460D01*
X011100Y008500D02*
X011145Y008502D01*
X011191Y008507D01*
X011235Y008515D01*
X011279Y008527D01*
X011322Y008543D01*
X011364Y008561D01*
X011404Y008583D01*
X011442Y008607D01*
X011478Y008634D01*
X011513Y008664D01*
X011544Y008697D01*
X011574Y008732D01*
X009980Y004980D02*
X007360Y004980D01*
X007220Y004840D01*
X007220Y002220D01*
X009980Y002220D01*
X009980Y004980D01*
X007379Y004680D02*
X007381Y004703D01*
X007387Y004726D01*
X007396Y004747D01*
X007409Y004767D01*
X007425Y004784D01*
X007443Y004798D01*
X007463Y004809D01*
X007485Y004817D01*
X007508Y004821D01*
X007532Y004821D01*
X007555Y004817D01*
X007577Y004809D01*
X007597Y004798D01*
X007615Y004784D01*
X007631Y004767D01*
X007644Y004747D01*
X007653Y004726D01*
X007659Y004703D01*
X007661Y004680D01*
X007659Y004657D01*
X007653Y004634D01*
X007644Y004613D01*
X007631Y004593D01*
X007615Y004576D01*
X007597Y004562D01*
X007577Y004551D01*
X007555Y004543D01*
X007532Y004539D01*
X007508Y004539D01*
X007485Y004543D01*
X007463Y004551D01*
X007443Y004562D01*
X007425Y004576D01*
X007409Y004593D01*
X007396Y004613D01*
X007387Y004634D01*
X007381Y004657D01*
X007379Y004680D01*
X009088Y009449D02*
X009059Y009486D01*
X009027Y009521D01*
X008992Y009554D01*
X008955Y009584D01*
X008916Y009610D01*
X008875Y009633D01*
X008831Y009654D01*
X008787Y009670D01*
X008741Y009683D01*
X008695Y009692D01*
X008647Y009698D01*
X008600Y009700D01*
X008126Y008732D02*
X008156Y008697D01*
X008187Y008664D01*
X008222Y008634D01*
X008258Y008607D01*
X008296Y008583D01*
X008336Y008561D01*
X008378Y008543D01*
X008421Y008527D01*
X008465Y008515D01*
X008509Y008507D01*
X008555Y008502D01*
X008600Y008500D01*
X008120Y009460D02*
X008149Y009496D01*
X008181Y009530D01*
X008216Y009561D01*
X008252Y009589D01*
X008291Y009614D01*
X008332Y009637D01*
X008374Y009656D01*
X008417Y009672D01*
X008462Y009684D01*
X008508Y009693D01*
X008554Y009698D01*
X008600Y009700D01*
X009074Y008732D02*
X009044Y008697D01*
X009013Y008664D01*
X008978Y008634D01*
X008942Y008607D01*
X008904Y008583D01*
X008864Y008561D01*
X008822Y008543D01*
X008779Y008527D01*
X008735Y008515D01*
X008691Y008507D01*
X008645Y008502D01*
X008600Y008500D01*
X006100Y008500D02*
X006055Y008502D01*
X006009Y008507D01*
X005965Y008515D01*
X005921Y008527D01*
X005878Y008543D01*
X005836Y008561D01*
X005796Y008583D01*
X005758Y008607D01*
X005722Y008634D01*
X005687Y008664D01*
X005656Y008697D01*
X005626Y008732D01*
X006100Y009700D02*
X006147Y009698D01*
X006195Y009692D01*
X006241Y009683D01*
X006287Y009670D01*
X006331Y009654D01*
X006375Y009633D01*
X006416Y009610D01*
X006455Y009584D01*
X006492Y009554D01*
X006527Y009521D01*
X006559Y009486D01*
X006588Y009449D01*
X006100Y009700D02*
X006054Y009698D01*
X006008Y009693D01*
X005962Y009684D01*
X005917Y009672D01*
X005874Y009656D01*
X005832Y009637D01*
X005791Y009614D01*
X005752Y009589D01*
X005716Y009561D01*
X005681Y009530D01*
X005649Y009496D01*
X005620Y009460D01*
X006100Y008500D02*
X006145Y008502D01*
X006191Y008507D01*
X006235Y008515D01*
X006279Y008527D01*
X006322Y008543D01*
X006364Y008561D01*
X006404Y008583D01*
X006442Y008607D01*
X006478Y008634D01*
X006513Y008664D01*
X006544Y008697D01*
X006574Y008732D01*
X004600Y007500D02*
X004555Y007502D01*
X004509Y007507D01*
X004465Y007515D01*
X004421Y007527D01*
X004378Y007543D01*
X004336Y007561D01*
X004296Y007583D01*
X004258Y007607D01*
X004222Y007634D01*
X004187Y007664D01*
X004156Y007697D01*
X004126Y007732D01*
X004600Y008700D02*
X004647Y008698D01*
X004695Y008692D01*
X004741Y008683D01*
X004787Y008670D01*
X004831Y008654D01*
X004875Y008633D01*
X004916Y008610D01*
X004955Y008584D01*
X004992Y008554D01*
X005027Y008521D01*
X005059Y008486D01*
X005088Y008449D01*
X004600Y008700D02*
X004554Y008698D01*
X004508Y008693D01*
X004462Y008684D01*
X004417Y008672D01*
X004374Y008656D01*
X004332Y008637D01*
X004291Y008614D01*
X004252Y008589D01*
X004216Y008561D01*
X004181Y008530D01*
X004149Y008496D01*
X004120Y008460D01*
X004600Y007500D02*
X004645Y007502D01*
X004691Y007507D01*
X004735Y007515D01*
X004779Y007527D01*
X004822Y007543D01*
X004864Y007561D01*
X004904Y007583D01*
X004942Y007607D01*
X004978Y007634D01*
X005013Y007664D01*
X005044Y007697D01*
X005074Y007732D01*
X004120Y010460D02*
X004149Y010496D01*
X004181Y010530D01*
X004216Y010561D01*
X004252Y010589D01*
X004291Y010614D01*
X004332Y010637D01*
X004374Y010656D01*
X004417Y010672D01*
X004462Y010684D01*
X004508Y010693D01*
X004554Y010698D01*
X004600Y010700D01*
X004126Y009732D02*
X004156Y009697D01*
X004187Y009664D01*
X004222Y009634D01*
X004258Y009607D01*
X004296Y009583D01*
X004336Y009561D01*
X004378Y009543D01*
X004421Y009527D01*
X004465Y009515D01*
X004509Y009507D01*
X004555Y009502D01*
X004600Y009500D01*
X005088Y010449D02*
X005059Y010486D01*
X005027Y010521D01*
X004992Y010554D01*
X004955Y010584D01*
X004916Y010610D01*
X004875Y010633D01*
X004831Y010654D01*
X004787Y010670D01*
X004741Y010683D01*
X004695Y010692D01*
X004647Y010698D01*
X004600Y010700D01*
X005074Y009732D02*
X005044Y009697D01*
X005013Y009664D01*
X004978Y009634D01*
X004942Y009607D01*
X004904Y009583D01*
X004864Y009561D01*
X004822Y009543D01*
X004779Y009527D01*
X004735Y009515D01*
X004691Y009507D01*
X004645Y009502D01*
X004600Y009500D01*
X003100Y008500D02*
X003055Y008502D01*
X003009Y008507D01*
X002965Y008515D01*
X002921Y008527D01*
X002878Y008543D01*
X002836Y008561D01*
X002796Y008583D01*
X002758Y008607D01*
X002722Y008634D01*
X002687Y008664D01*
X002656Y008697D01*
X002626Y008732D01*
X003100Y009700D02*
X003147Y009698D01*
X003195Y009692D01*
X003241Y009683D01*
X003287Y009670D01*
X003331Y009654D01*
X003375Y009633D01*
X003416Y009610D01*
X003455Y009584D01*
X003492Y009554D01*
X003527Y009521D01*
X003559Y009486D01*
X003588Y009449D01*
X003100Y009700D02*
X003054Y009698D01*
X003008Y009693D01*
X002962Y009684D01*
X002917Y009672D01*
X002874Y009656D01*
X002832Y009637D01*
X002791Y009614D01*
X002752Y009589D01*
X002716Y009561D01*
X002681Y009530D01*
X002649Y009496D01*
X002620Y009460D01*
X003100Y008500D02*
X003145Y008502D01*
X003191Y008507D01*
X003235Y008515D01*
X003279Y008527D01*
X003322Y008543D01*
X003364Y008561D01*
X003404Y008583D01*
X003442Y008607D01*
X003478Y008634D01*
X003513Y008664D01*
X003544Y008697D01*
X003574Y008732D01*
X001626Y004482D02*
X001656Y004447D01*
X001687Y004414D01*
X001722Y004384D01*
X001758Y004357D01*
X001796Y004333D01*
X001836Y004311D01*
X001878Y004293D01*
X001921Y004277D01*
X001965Y004265D01*
X002009Y004257D01*
X002055Y004252D01*
X002100Y004250D01*
X001620Y005210D02*
X001649Y005246D01*
X001681Y005280D01*
X001716Y005311D01*
X001752Y005339D01*
X001791Y005364D01*
X001832Y005387D01*
X001874Y005406D01*
X001917Y005422D01*
X001962Y005434D01*
X002008Y005443D01*
X002054Y005448D01*
X002100Y005450D01*
X002574Y004482D02*
X002544Y004447D01*
X002513Y004414D01*
X002478Y004384D01*
X002442Y004357D01*
X002404Y004333D01*
X002364Y004311D01*
X002322Y004293D01*
X002279Y004277D01*
X002235Y004265D01*
X002191Y004257D01*
X002145Y004252D01*
X002100Y004250D01*
X002588Y005199D02*
X002559Y005236D01*
X002527Y005271D01*
X002492Y005304D01*
X002455Y005334D01*
X002416Y005360D01*
X002375Y005383D01*
X002331Y005404D01*
X002287Y005420D01*
X002241Y005433D01*
X002195Y005442D01*
X002147Y005448D01*
X002100Y005450D01*
X001620Y013960D02*
X001649Y013996D01*
X001681Y014030D01*
X001716Y014061D01*
X001752Y014089D01*
X001791Y014114D01*
X001832Y014137D01*
X001874Y014156D01*
X001917Y014172D01*
X001962Y014184D01*
X002008Y014193D01*
X002054Y014198D01*
X002100Y014200D01*
X001626Y013232D02*
X001656Y013197D01*
X001687Y013164D01*
X001722Y013134D01*
X001758Y013107D01*
X001796Y013083D01*
X001836Y013061D01*
X001878Y013043D01*
X001921Y013027D01*
X001965Y013015D01*
X002009Y013007D01*
X002055Y013002D01*
X002100Y013000D01*
X002588Y013949D02*
X002559Y013986D01*
X002527Y014021D01*
X002492Y014054D01*
X002455Y014084D01*
X002416Y014110D01*
X002375Y014133D01*
X002331Y014154D01*
X002287Y014170D01*
X002241Y014183D01*
X002195Y014192D01*
X002147Y014198D01*
X002100Y014200D01*
X002574Y013232D02*
X002544Y013197D01*
X002513Y013164D01*
X002478Y013134D01*
X002442Y013107D01*
X002404Y013083D01*
X002364Y013061D01*
X002322Y013043D01*
X002279Y013027D01*
X002235Y013015D01*
X002191Y013007D01*
X002145Y013002D01*
X002100Y013000D01*
X008600Y016200D02*
X008647Y016198D01*
X008695Y016192D01*
X008741Y016183D01*
X008787Y016170D01*
X008831Y016154D01*
X008875Y016133D01*
X008916Y016110D01*
X008955Y016084D01*
X008992Y016054D01*
X009027Y016021D01*
X009059Y015986D01*
X009088Y015949D01*
X008600Y015000D02*
X008555Y015002D01*
X008509Y015007D01*
X008465Y015015D01*
X008421Y015027D01*
X008378Y015043D01*
X008336Y015061D01*
X008296Y015083D01*
X008258Y015107D01*
X008222Y015134D01*
X008187Y015164D01*
X008156Y015197D01*
X008126Y015232D01*
X008600Y015000D02*
X008645Y015002D01*
X008691Y015007D01*
X008735Y015015D01*
X008779Y015027D01*
X008822Y015043D01*
X008864Y015061D01*
X008904Y015083D01*
X008942Y015107D01*
X008978Y015134D01*
X009013Y015164D01*
X009044Y015197D01*
X009074Y015232D01*
X008600Y016200D02*
X008554Y016198D01*
X008508Y016193D01*
X008462Y016184D01*
X008417Y016172D01*
X008374Y016156D01*
X008332Y016137D01*
X008291Y016114D01*
X008252Y016089D01*
X008216Y016061D01*
X008181Y016030D01*
X008149Y015996D01*
X008120Y015960D01*
X015100Y005450D02*
X015147Y005448D01*
X015195Y005442D01*
X015241Y005433D01*
X015287Y005420D01*
X015331Y005404D01*
X015375Y005383D01*
X015416Y005360D01*
X015455Y005334D01*
X015492Y005304D01*
X015527Y005271D01*
X015559Y005236D01*
X015588Y005199D01*
X015100Y004250D02*
X015055Y004252D01*
X015009Y004257D01*
X014965Y004265D01*
X014921Y004277D01*
X014878Y004293D01*
X014836Y004311D01*
X014796Y004333D01*
X014758Y004357D01*
X014722Y004384D01*
X014687Y004414D01*
X014656Y004447D01*
X014626Y004482D01*
X015100Y004250D02*
X015145Y004252D01*
X015191Y004257D01*
X015235Y004265D01*
X015279Y004277D01*
X015322Y004293D01*
X015364Y004311D01*
X015404Y004333D01*
X015442Y004357D01*
X015478Y004384D01*
X015513Y004414D01*
X015544Y004447D01*
X015574Y004482D01*
X015100Y005450D02*
X015054Y005448D01*
X015008Y005443D01*
X014962Y005434D01*
X014917Y005422D01*
X014874Y005406D01*
X014832Y005387D01*
X014791Y005364D01*
X014752Y005339D01*
X014716Y005311D01*
X014681Y005280D01*
X014649Y005246D01*
X014620Y005210D01*
D13*
X014773Y006120D02*
X014620Y006273D01*
X015080Y006273D01*
X015080Y006120D02*
X015080Y006427D01*
X015080Y006580D02*
X014620Y006580D01*
X014773Y006811D02*
X014927Y006580D01*
X015080Y006811D01*
X013030Y005731D02*
X012570Y005731D01*
X012570Y006038D01*
X012800Y005885D02*
X012800Y005731D01*
X012723Y005578D02*
X013030Y005578D01*
X013030Y005348D01*
X012953Y005271D01*
X012723Y005271D01*
X012570Y004964D02*
X013030Y004964D01*
X013030Y004811D02*
X013030Y005118D01*
X012723Y004811D02*
X012570Y004964D01*
X012646Y004427D02*
X012570Y004350D01*
X012570Y004197D01*
X012646Y004120D01*
X012953Y004120D01*
X012646Y004427D01*
X012953Y004427D01*
X013030Y004350D01*
X013030Y004197D01*
X012953Y004120D01*
X012953Y004580D02*
X012953Y004657D01*
X013030Y004657D01*
X013030Y004580D01*
X012953Y004580D01*
X011630Y002160D02*
X011170Y002160D01*
X011170Y002467D01*
X011400Y002313D02*
X011400Y002160D01*
X011323Y002006D02*
X011630Y002006D01*
X011630Y001776D01*
X011553Y001699D01*
X011323Y001699D01*
X011170Y001392D02*
X011630Y001392D01*
X011630Y001239D02*
X011630Y001546D01*
X011323Y001239D02*
X011170Y001392D01*
X011553Y001085D02*
X011630Y001085D01*
X011630Y001009D01*
X011553Y001009D01*
X011553Y001085D01*
X011553Y000855D02*
X011630Y000778D01*
X011630Y000625D01*
X011553Y000548D01*
X011246Y000855D01*
X011553Y000855D01*
X011553Y000548D02*
X011246Y000548D01*
X011170Y000625D01*
X011170Y000778D01*
X011246Y000855D01*
X016620Y001773D02*
X017080Y001773D01*
X017080Y001620D02*
X017080Y001927D01*
X017080Y002080D02*
X016620Y002080D01*
X016773Y002311D02*
X016927Y002080D01*
X017080Y002311D01*
X016620Y001773D02*
X016773Y001620D01*
X013580Y010776D02*
X013580Y011083D01*
X013580Y011236D02*
X013120Y011236D01*
X013273Y011467D02*
X013427Y011236D01*
X013580Y011467D01*
X013580Y010929D02*
X013120Y010929D01*
X013273Y010776D01*
X012080Y011776D02*
X012080Y012083D01*
X012080Y012236D02*
X011620Y012236D01*
X011773Y012467D02*
X011927Y012236D01*
X012080Y012467D01*
X012080Y011929D02*
X011620Y011929D01*
X011773Y011776D01*
X010580Y011467D02*
X010427Y011236D01*
X010273Y011467D01*
X010120Y011236D02*
X010580Y011236D01*
X010580Y011083D02*
X010580Y010776D01*
X010580Y010929D02*
X010120Y010929D01*
X010273Y010776D01*
X008080Y010776D02*
X008080Y011083D01*
X008080Y011236D02*
X007620Y011236D01*
X007773Y011467D02*
X007927Y011236D01*
X008080Y011467D01*
X008080Y010929D02*
X007620Y010929D01*
X007773Y010776D01*
X005580Y010776D02*
X005580Y011083D01*
X005580Y011236D02*
X005120Y011236D01*
X005273Y011467D02*
X005427Y011236D01*
X005580Y011467D01*
X005580Y010929D02*
X005120Y010929D01*
X005273Y010776D01*
X004080Y011776D02*
X004080Y012083D01*
X004080Y012236D02*
X003620Y012236D01*
X003773Y012467D02*
X003927Y012236D01*
X004080Y012467D01*
X004080Y011929D02*
X003620Y011929D01*
X003773Y011776D01*
X002580Y011467D02*
X002427Y011236D01*
X002273Y011467D01*
X002120Y011236D02*
X002580Y011236D01*
X002580Y011083D02*
X002580Y010776D01*
X002580Y010929D02*
X002120Y010929D01*
X002273Y010776D01*
X002311Y014620D02*
X002080Y014773D01*
X002311Y014927D01*
X002080Y015080D02*
X002080Y014620D01*
X001927Y014620D02*
X001620Y014620D01*
X001773Y014620D02*
X001773Y015080D01*
X001620Y014927D01*
X003273Y019620D02*
X003120Y019773D01*
X003580Y019773D01*
X003580Y019620D02*
X003580Y019927D01*
X003580Y020080D02*
X003120Y020080D01*
X003273Y020311D02*
X003427Y020080D01*
X003580Y020311D01*
X002811Y022620D02*
X002580Y022773D01*
X002811Y022927D01*
X002580Y023080D02*
X002580Y022620D01*
X002427Y022620D02*
X002120Y022620D01*
X002273Y022620D02*
X002273Y023080D01*
X002120Y022927D01*
X005773Y017580D02*
X005620Y017427D01*
X005773Y017580D02*
X005773Y017120D01*
X005620Y017120D02*
X005927Y017120D01*
X006080Y017120D02*
X006080Y017580D01*
X006311Y017427D02*
X006080Y017273D01*
X006311Y017120D01*
X006080Y015080D02*
X006080Y014620D01*
X005927Y014620D02*
X005620Y014620D01*
X005773Y014620D02*
X005773Y015080D01*
X005620Y014927D01*
X006080Y014773D02*
X006311Y014927D01*
X006080Y014773D02*
X006311Y014620D01*
X008273Y019620D02*
X008120Y019773D01*
X008580Y019773D01*
X008580Y019620D02*
X008580Y019927D01*
X008580Y020080D02*
X008120Y020080D01*
X008273Y020311D02*
X008427Y020080D01*
X008580Y020311D01*
X009620Y020080D02*
X010080Y020080D01*
X010080Y019927D02*
X010080Y019620D01*
X010080Y019773D02*
X009620Y019773D01*
X009773Y019620D01*
X009927Y020080D02*
X009773Y020311D01*
X009927Y020080D02*
X010080Y020311D01*
X011120Y020080D02*
X011580Y020080D01*
X011580Y019927D02*
X011580Y019620D01*
X011580Y019773D02*
X011120Y019773D01*
X011273Y019620D01*
X011427Y020080D02*
X011273Y020311D01*
X011427Y020080D02*
X011580Y020311D01*
X010811Y022620D02*
X010580Y022773D01*
X010811Y022927D01*
X010580Y023080D02*
X010580Y022620D01*
X010427Y022620D02*
X010120Y022620D01*
X010273Y022620D02*
X010273Y023080D01*
X010120Y022927D01*
X012773Y017811D02*
X012927Y017580D01*
X013080Y017811D01*
X013080Y017580D02*
X012620Y017580D01*
X012620Y017273D02*
X013080Y017273D01*
X013080Y017120D02*
X013080Y017427D01*
X012773Y017120D02*
X012620Y017273D01*
X014773Y015080D02*
X014620Y014927D01*
X014773Y015080D02*
X014773Y014620D01*
X014620Y014620D02*
X014927Y014620D01*
X015080Y014620D02*
X015080Y015080D01*
X015311Y014927D02*
X015080Y014773D01*
X015311Y014620D01*
X015273Y019620D02*
X015120Y019773D01*
X015580Y019773D01*
X015580Y019620D02*
X015580Y019927D01*
X015580Y020080D02*
X015120Y020080D01*
X015273Y020311D02*
X015427Y020080D01*
X015580Y020311D01*
X006967Y024120D02*
X006736Y024273D01*
X006967Y024427D01*
X006736Y024580D02*
X006736Y024120D01*
X006583Y024120D02*
X006276Y024120D01*
X006429Y024120D02*
X006429Y024580D01*
X006276Y024427D01*
X004080Y006811D02*
X003927Y006580D01*
X003773Y006811D01*
X003620Y006580D02*
X004080Y006580D01*
X004080Y006427D02*
X004080Y006120D01*
X004080Y006273D02*
X003620Y006273D01*
X003773Y006120D01*
X003580Y002467D02*
X003427Y002236D01*
X003273Y002467D01*
X003120Y002236D02*
X003580Y002236D01*
X003503Y002083D02*
X003580Y002006D01*
X003580Y001853D01*
X003503Y001776D01*
X003196Y002083D01*
X003503Y002083D01*
X003503Y001776D02*
X003196Y001776D01*
X003120Y001853D01*
X003120Y002006D01*
X003196Y002083D01*
X003580Y001622D02*
X003580Y001316D01*
X003580Y001469D02*
X003120Y001469D01*
X003273Y001316D01*
X002580Y001620D02*
X002580Y001927D01*
X002580Y002080D02*
X002120Y002080D01*
X002273Y002311D02*
X002427Y002080D01*
X002580Y002311D01*
X002580Y001773D02*
X002120Y001773D01*
X002273Y001620D01*
D14*
X001394Y005226D02*
X001421Y005273D01*
X001451Y005318D01*
X001484Y005361D01*
X001520Y005401D01*
X001559Y005439D01*
X001600Y005474D01*
X001643Y005507D01*
X001688Y005536D01*
X001736Y005562D01*
X001785Y005585D01*
X001835Y005605D01*
X001886Y005621D01*
X001939Y005634D01*
X001992Y005643D01*
X002046Y005648D01*
X002100Y005650D01*
X001405Y004453D02*
X001435Y004405D01*
X001468Y004360D01*
X001504Y004317D01*
X001542Y004276D01*
X001584Y004239D01*
X001628Y004204D01*
X001674Y004173D01*
X001723Y004144D01*
X001773Y004120D01*
X001825Y004099D01*
X001879Y004081D01*
X001933Y004068D01*
X001988Y004058D01*
X002044Y004052D01*
X002100Y004050D01*
X002153Y004052D01*
X002207Y004057D01*
X002259Y004066D01*
X002311Y004078D01*
X002362Y004094D01*
X002412Y004113D01*
X002461Y004136D01*
X002508Y004162D01*
X002553Y004190D01*
X002596Y004222D01*
X002636Y004256D01*
X002675Y004294D01*
X002711Y004333D01*
X002715Y005362D02*
X002679Y005402D01*
X002640Y005440D01*
X002599Y005475D01*
X002556Y005507D01*
X002511Y005537D01*
X002464Y005563D01*
X002415Y005585D01*
X002364Y005605D01*
X002313Y005621D01*
X002261Y005634D01*
X002207Y005643D01*
X002154Y005648D01*
X002100Y005650D01*
X003100Y008300D02*
X003044Y008302D01*
X002988Y008308D01*
X002933Y008318D01*
X002879Y008331D01*
X002825Y008349D01*
X002773Y008370D01*
X002723Y008394D01*
X002674Y008423D01*
X002628Y008454D01*
X002584Y008489D01*
X002542Y008526D01*
X002504Y008567D01*
X002468Y008610D01*
X002435Y008655D01*
X002405Y008703D01*
X003100Y009900D02*
X003154Y009898D01*
X003207Y009893D01*
X003261Y009884D01*
X003313Y009871D01*
X003364Y009855D01*
X003415Y009835D01*
X003464Y009813D01*
X003511Y009787D01*
X003556Y009757D01*
X003599Y009725D01*
X003640Y009690D01*
X003679Y009652D01*
X003715Y009612D01*
X003100Y009900D02*
X003046Y009898D01*
X002992Y009893D01*
X002939Y009884D01*
X002886Y009871D01*
X002835Y009855D01*
X002785Y009835D01*
X002736Y009812D01*
X002688Y009786D01*
X002643Y009757D01*
X002600Y009724D01*
X002559Y009689D01*
X002520Y009651D01*
X002484Y009611D01*
X002451Y009568D01*
X002421Y009523D01*
X002394Y009476D01*
X003100Y008300D02*
X003153Y008302D01*
X003207Y008307D01*
X003259Y008316D01*
X003311Y008328D01*
X003362Y008344D01*
X003412Y008363D01*
X003461Y008386D01*
X003508Y008412D01*
X003553Y008440D01*
X003596Y008472D01*
X003636Y008506D01*
X003675Y008544D01*
X003711Y008583D01*
X003905Y007703D02*
X003935Y007655D01*
X003968Y007610D01*
X004004Y007567D01*
X004042Y007526D01*
X004084Y007489D01*
X004128Y007454D01*
X004174Y007423D01*
X004223Y007394D01*
X004273Y007370D01*
X004325Y007349D01*
X004379Y007331D01*
X004433Y007318D01*
X004488Y007308D01*
X004544Y007302D01*
X004600Y007300D01*
X003894Y008476D02*
X003921Y008523D01*
X003951Y008568D01*
X003984Y008611D01*
X004020Y008651D01*
X004059Y008689D01*
X004100Y008724D01*
X004143Y008757D01*
X004188Y008786D01*
X004236Y008812D01*
X004285Y008835D01*
X004335Y008855D01*
X004386Y008871D01*
X004439Y008884D01*
X004492Y008893D01*
X004546Y008898D01*
X004600Y008900D01*
X005211Y007583D02*
X005175Y007544D01*
X005136Y007506D01*
X005096Y007472D01*
X005053Y007440D01*
X005008Y007412D01*
X004961Y007386D01*
X004912Y007363D01*
X004862Y007344D01*
X004811Y007328D01*
X004759Y007316D01*
X004707Y007307D01*
X004653Y007302D01*
X004600Y007300D01*
X005215Y008612D02*
X005179Y008652D01*
X005140Y008690D01*
X005099Y008725D01*
X005056Y008757D01*
X005011Y008787D01*
X004964Y008813D01*
X004915Y008835D01*
X004864Y008855D01*
X004813Y008871D01*
X004761Y008884D01*
X004707Y008893D01*
X004654Y008898D01*
X004600Y008900D01*
X003894Y010476D02*
X003921Y010523D01*
X003951Y010568D01*
X003984Y010611D01*
X004020Y010651D01*
X004059Y010689D01*
X004100Y010724D01*
X004143Y010757D01*
X004188Y010786D01*
X004236Y010812D01*
X004285Y010835D01*
X004335Y010855D01*
X004386Y010871D01*
X004439Y010884D01*
X004492Y010893D01*
X004546Y010898D01*
X004600Y010900D01*
X003905Y009703D02*
X003935Y009655D01*
X003968Y009610D01*
X004004Y009567D01*
X004042Y009526D01*
X004084Y009489D01*
X004128Y009454D01*
X004174Y009423D01*
X004223Y009394D01*
X004273Y009370D01*
X004325Y009349D01*
X004379Y009331D01*
X004433Y009318D01*
X004488Y009308D01*
X004544Y009302D01*
X004600Y009300D01*
X004653Y009302D01*
X004707Y009307D01*
X004759Y009316D01*
X004811Y009328D01*
X004862Y009344D01*
X004912Y009363D01*
X004961Y009386D01*
X005008Y009412D01*
X005053Y009440D01*
X005096Y009472D01*
X005136Y009506D01*
X005175Y009544D01*
X005211Y009583D01*
X005215Y010612D02*
X005179Y010652D01*
X005140Y010690D01*
X005099Y010725D01*
X005056Y010757D01*
X005011Y010787D01*
X004964Y010813D01*
X004915Y010835D01*
X004864Y010855D01*
X004813Y010871D01*
X004761Y010884D01*
X004707Y010893D01*
X004654Y010898D01*
X004600Y010900D01*
X005405Y008703D02*
X005435Y008655D01*
X005468Y008610D01*
X005504Y008567D01*
X005542Y008526D01*
X005584Y008489D01*
X005628Y008454D01*
X005674Y008423D01*
X005723Y008394D01*
X005773Y008370D01*
X005825Y008349D01*
X005879Y008331D01*
X005933Y008318D01*
X005988Y008308D01*
X006044Y008302D01*
X006100Y008300D01*
X005394Y009476D02*
X005421Y009523D01*
X005451Y009568D01*
X005484Y009611D01*
X005520Y009651D01*
X005559Y009689D01*
X005600Y009724D01*
X005643Y009757D01*
X005688Y009786D01*
X005736Y009812D01*
X005785Y009835D01*
X005835Y009855D01*
X005886Y009871D01*
X005939Y009884D01*
X005992Y009893D01*
X006046Y009898D01*
X006100Y009900D01*
X006711Y008583D02*
X006675Y008544D01*
X006636Y008506D01*
X006596Y008472D01*
X006553Y008440D01*
X006508Y008412D01*
X006461Y008386D01*
X006412Y008363D01*
X006362Y008344D01*
X006311Y008328D01*
X006259Y008316D01*
X006207Y008307D01*
X006153Y008302D01*
X006100Y008300D01*
X006715Y009612D02*
X006679Y009652D01*
X006640Y009690D01*
X006599Y009725D01*
X006556Y009757D01*
X006511Y009787D01*
X006464Y009813D01*
X006415Y009835D01*
X006364Y009855D01*
X006313Y009871D01*
X006261Y009884D01*
X006207Y009893D01*
X006154Y009898D01*
X006100Y009900D01*
X007905Y008703D02*
X007935Y008655D01*
X007968Y008610D01*
X008004Y008567D01*
X008042Y008526D01*
X008084Y008489D01*
X008128Y008454D01*
X008174Y008423D01*
X008223Y008394D01*
X008273Y008370D01*
X008325Y008349D01*
X008379Y008331D01*
X008433Y008318D01*
X008488Y008308D01*
X008544Y008302D01*
X008600Y008300D01*
X007894Y009476D02*
X007921Y009523D01*
X007951Y009568D01*
X007984Y009611D01*
X008020Y009651D01*
X008059Y009689D01*
X008100Y009724D01*
X008143Y009757D01*
X008188Y009786D01*
X008236Y009812D01*
X008285Y009835D01*
X008335Y009855D01*
X008386Y009871D01*
X008439Y009884D01*
X008492Y009893D01*
X008546Y009898D01*
X008600Y009900D01*
X009211Y008583D02*
X009175Y008544D01*
X009136Y008506D01*
X009096Y008472D01*
X009053Y008440D01*
X009008Y008412D01*
X008961Y008386D01*
X008912Y008363D01*
X008862Y008344D01*
X008811Y008328D01*
X008759Y008316D01*
X008707Y008307D01*
X008653Y008302D01*
X008600Y008300D01*
X009215Y009612D02*
X009179Y009652D01*
X009140Y009690D01*
X009099Y009725D01*
X009056Y009757D01*
X009011Y009787D01*
X008964Y009813D01*
X008915Y009835D01*
X008864Y009855D01*
X008813Y009871D01*
X008761Y009884D01*
X008707Y009893D01*
X008654Y009898D01*
X008600Y009900D01*
X010405Y008703D02*
X010435Y008655D01*
X010468Y008610D01*
X010504Y008567D01*
X010542Y008526D01*
X010584Y008489D01*
X010628Y008454D01*
X010674Y008423D01*
X010723Y008394D01*
X010773Y008370D01*
X010825Y008349D01*
X010879Y008331D01*
X010933Y008318D01*
X010988Y008308D01*
X011044Y008302D01*
X011100Y008300D01*
X010394Y009476D02*
X010421Y009523D01*
X010451Y009568D01*
X010484Y009611D01*
X010520Y009651D01*
X010559Y009689D01*
X010600Y009724D01*
X010643Y009757D01*
X010688Y009786D01*
X010736Y009812D01*
X010785Y009835D01*
X010835Y009855D01*
X010886Y009871D01*
X010939Y009884D01*
X010992Y009893D01*
X011046Y009898D01*
X011100Y009900D01*
X011711Y008583D02*
X011675Y008544D01*
X011636Y008506D01*
X011596Y008472D01*
X011553Y008440D01*
X011508Y008412D01*
X011461Y008386D01*
X011412Y008363D01*
X011362Y008344D01*
X011311Y008328D01*
X011259Y008316D01*
X011207Y008307D01*
X011153Y008302D01*
X011100Y008300D01*
X011715Y009612D02*
X011679Y009652D01*
X011640Y009690D01*
X011599Y009725D01*
X011556Y009757D01*
X011511Y009787D01*
X011464Y009813D01*
X011415Y009835D01*
X011364Y009855D01*
X011313Y009871D01*
X011261Y009884D01*
X011207Y009893D01*
X011154Y009898D01*
X011100Y009900D01*
X011905Y009703D02*
X011935Y009655D01*
X011968Y009610D01*
X012004Y009567D01*
X012042Y009526D01*
X012084Y009489D01*
X012128Y009454D01*
X012174Y009423D01*
X012223Y009394D01*
X012273Y009370D01*
X012325Y009349D01*
X012379Y009331D01*
X012433Y009318D01*
X012488Y009308D01*
X012544Y009302D01*
X012600Y009300D01*
X011894Y010476D02*
X011921Y010523D01*
X011951Y010568D01*
X011984Y010611D01*
X012020Y010651D01*
X012059Y010689D01*
X012100Y010724D01*
X012143Y010757D01*
X012188Y010786D01*
X012236Y010812D01*
X012285Y010835D01*
X012335Y010855D01*
X012386Y010871D01*
X012439Y010884D01*
X012492Y010893D01*
X012546Y010898D01*
X012600Y010900D01*
X013211Y009583D02*
X013175Y009544D01*
X013136Y009506D01*
X013096Y009472D01*
X013053Y009440D01*
X013008Y009412D01*
X012961Y009386D01*
X012912Y009363D01*
X012862Y009344D01*
X012811Y009328D01*
X012759Y009316D01*
X012707Y009307D01*
X012653Y009302D01*
X012600Y009300D01*
X013215Y010612D02*
X013179Y010652D01*
X013140Y010690D01*
X013099Y010725D01*
X013056Y010757D01*
X013011Y010787D01*
X012964Y010813D01*
X012915Y010835D01*
X012864Y010855D01*
X012813Y010871D01*
X012761Y010884D01*
X012707Y010893D01*
X012654Y010898D01*
X012600Y010900D01*
X013405Y008703D02*
X013435Y008655D01*
X013468Y008610D01*
X013504Y008567D01*
X013542Y008526D01*
X013584Y008489D01*
X013628Y008454D01*
X013674Y008423D01*
X013723Y008394D01*
X013773Y008370D01*
X013825Y008349D01*
X013879Y008331D01*
X013933Y008318D01*
X013988Y008308D01*
X014044Y008302D01*
X014100Y008300D01*
X013394Y009476D02*
X013421Y009523D01*
X013451Y009568D01*
X013484Y009611D01*
X013520Y009651D01*
X013559Y009689D01*
X013600Y009724D01*
X013643Y009757D01*
X013688Y009786D01*
X013736Y009812D01*
X013785Y009835D01*
X013835Y009855D01*
X013886Y009871D01*
X013939Y009884D01*
X013992Y009893D01*
X014046Y009898D01*
X014100Y009900D01*
X014711Y008583D02*
X014675Y008544D01*
X014636Y008506D01*
X014596Y008472D01*
X014553Y008440D01*
X014508Y008412D01*
X014461Y008386D01*
X014412Y008363D01*
X014362Y008344D01*
X014311Y008328D01*
X014259Y008316D01*
X014207Y008307D01*
X014153Y008302D01*
X014100Y008300D01*
X014715Y009612D02*
X014679Y009652D01*
X014640Y009690D01*
X014599Y009725D01*
X014556Y009757D01*
X014511Y009787D01*
X014464Y009813D01*
X014415Y009835D01*
X014364Y009855D01*
X014313Y009871D01*
X014261Y009884D01*
X014207Y009893D01*
X014154Y009898D01*
X014100Y009900D01*
X012600Y008900D02*
X012546Y008898D01*
X012492Y008893D01*
X012439Y008884D01*
X012386Y008871D01*
X012335Y008855D01*
X012285Y008835D01*
X012236Y008812D01*
X012188Y008786D01*
X012143Y008757D01*
X012100Y008724D01*
X012059Y008689D01*
X012020Y008651D01*
X011984Y008611D01*
X011951Y008568D01*
X011921Y008523D01*
X011894Y008476D01*
X011905Y007703D02*
X011935Y007655D01*
X011968Y007610D01*
X012004Y007567D01*
X012042Y007526D01*
X012084Y007489D01*
X012128Y007454D01*
X012174Y007423D01*
X012223Y007394D01*
X012273Y007370D01*
X012325Y007349D01*
X012379Y007331D01*
X012433Y007318D01*
X012488Y007308D01*
X012544Y007302D01*
X012600Y007300D01*
X012653Y007302D01*
X012707Y007307D01*
X012759Y007316D01*
X012811Y007328D01*
X012862Y007344D01*
X012912Y007363D01*
X012961Y007386D01*
X013008Y007412D01*
X013053Y007440D01*
X013096Y007472D01*
X013136Y007506D01*
X013175Y007544D01*
X013211Y007583D01*
X013215Y008612D02*
X013179Y008652D01*
X013140Y008690D01*
X013099Y008725D01*
X013056Y008757D01*
X013011Y008787D01*
X012964Y008813D01*
X012915Y008835D01*
X012864Y008855D01*
X012813Y008871D01*
X012761Y008884D01*
X012707Y008893D01*
X012654Y008898D01*
X012600Y008900D01*
X014405Y004453D02*
X014435Y004405D01*
X014468Y004360D01*
X014504Y004317D01*
X014542Y004276D01*
X014584Y004239D01*
X014628Y004204D01*
X014674Y004173D01*
X014723Y004144D01*
X014773Y004120D01*
X014825Y004099D01*
X014879Y004081D01*
X014933Y004068D01*
X014988Y004058D01*
X015044Y004052D01*
X015100Y004050D01*
X014394Y005226D02*
X014421Y005273D01*
X014451Y005318D01*
X014484Y005361D01*
X014520Y005401D01*
X014559Y005439D01*
X014600Y005474D01*
X014643Y005507D01*
X014688Y005536D01*
X014736Y005562D01*
X014785Y005585D01*
X014835Y005605D01*
X014886Y005621D01*
X014939Y005634D01*
X014992Y005643D01*
X015046Y005648D01*
X015100Y005650D01*
X015711Y004333D02*
X015675Y004294D01*
X015636Y004256D01*
X015596Y004222D01*
X015553Y004190D01*
X015508Y004162D01*
X015461Y004136D01*
X015412Y004113D01*
X015362Y004094D01*
X015311Y004078D01*
X015259Y004066D01*
X015207Y004057D01*
X015153Y004052D01*
X015100Y004050D01*
X015715Y005362D02*
X015679Y005402D01*
X015640Y005440D01*
X015599Y005475D01*
X015556Y005507D01*
X015511Y005537D01*
X015464Y005563D01*
X015415Y005585D01*
X015364Y005605D01*
X015313Y005621D01*
X015261Y005634D01*
X015207Y005643D01*
X015154Y005648D01*
X015100Y005650D01*
X014394Y013976D02*
X014421Y014023D01*
X014451Y014068D01*
X014484Y014111D01*
X014520Y014151D01*
X014559Y014189D01*
X014600Y014224D01*
X014643Y014257D01*
X014688Y014286D01*
X014736Y014312D01*
X014785Y014335D01*
X014835Y014355D01*
X014886Y014371D01*
X014939Y014384D01*
X014992Y014393D01*
X015046Y014398D01*
X015100Y014400D01*
X014405Y013203D02*
X014435Y013155D01*
X014468Y013110D01*
X014504Y013067D01*
X014542Y013026D01*
X014584Y012989D01*
X014628Y012954D01*
X014674Y012923D01*
X014723Y012894D01*
X014773Y012870D01*
X014825Y012849D01*
X014879Y012831D01*
X014933Y012818D01*
X014988Y012808D01*
X015044Y012802D01*
X015100Y012800D01*
X015153Y012802D01*
X015207Y012807D01*
X015259Y012816D01*
X015311Y012828D01*
X015362Y012844D01*
X015412Y012863D01*
X015461Y012886D01*
X015508Y012912D01*
X015553Y012940D01*
X015596Y012972D01*
X015636Y013006D01*
X015675Y013044D01*
X015711Y013083D01*
X015715Y014112D02*
X015679Y014152D01*
X015640Y014190D01*
X015599Y014225D01*
X015556Y014257D01*
X015511Y014287D01*
X015464Y014313D01*
X015415Y014335D01*
X015364Y014355D01*
X015313Y014371D01*
X015261Y014384D01*
X015207Y014393D01*
X015154Y014398D01*
X015100Y014400D01*
X011894Y020226D02*
X011921Y020273D01*
X011951Y020318D01*
X011984Y020361D01*
X012020Y020401D01*
X012059Y020439D01*
X012100Y020474D01*
X012143Y020507D01*
X012188Y020536D01*
X012236Y020562D01*
X012285Y020585D01*
X012335Y020605D01*
X012386Y020621D01*
X012439Y020634D01*
X012492Y020643D01*
X012546Y020648D01*
X012600Y020650D01*
X011905Y019453D02*
X011935Y019405D01*
X011968Y019360D01*
X012004Y019317D01*
X012042Y019276D01*
X012084Y019239D01*
X012128Y019204D01*
X012174Y019173D01*
X012223Y019144D01*
X012273Y019120D01*
X012325Y019099D01*
X012379Y019081D01*
X012433Y019068D01*
X012488Y019058D01*
X012544Y019052D01*
X012600Y019050D01*
X012653Y019052D01*
X012707Y019057D01*
X012759Y019066D01*
X012811Y019078D01*
X012862Y019094D01*
X012912Y019113D01*
X012961Y019136D01*
X013008Y019162D01*
X013053Y019190D01*
X013096Y019222D01*
X013136Y019256D01*
X013175Y019294D01*
X013211Y019333D01*
X013215Y020362D02*
X013179Y020402D01*
X013140Y020440D01*
X013099Y020475D01*
X013056Y020507D01*
X013011Y020537D01*
X012964Y020563D01*
X012915Y020585D01*
X012864Y020605D01*
X012813Y020621D01*
X012761Y020634D01*
X012707Y020643D01*
X012654Y020648D01*
X012600Y020650D01*
X011894Y022476D02*
X011921Y022523D01*
X011951Y022568D01*
X011984Y022611D01*
X012020Y022651D01*
X012059Y022689D01*
X012100Y022724D01*
X012143Y022757D01*
X012188Y022786D01*
X012236Y022812D01*
X012285Y022835D01*
X012335Y022855D01*
X012386Y022871D01*
X012439Y022884D01*
X012492Y022893D01*
X012546Y022898D01*
X012600Y022900D01*
X011905Y021703D02*
X011935Y021655D01*
X011968Y021610D01*
X012004Y021567D01*
X012042Y021526D01*
X012084Y021489D01*
X012128Y021454D01*
X012174Y021423D01*
X012223Y021394D01*
X012273Y021370D01*
X012325Y021349D01*
X012379Y021331D01*
X012433Y021318D01*
X012488Y021308D01*
X012544Y021302D01*
X012600Y021300D01*
X012653Y021302D01*
X012707Y021307D01*
X012759Y021316D01*
X012811Y021328D01*
X012862Y021344D01*
X012912Y021363D01*
X012961Y021386D01*
X013008Y021412D01*
X013053Y021440D01*
X013096Y021472D01*
X013136Y021506D01*
X013175Y021544D01*
X013211Y021583D01*
X013215Y022612D02*
X013179Y022652D01*
X013140Y022690D01*
X013099Y022725D01*
X013056Y022757D01*
X013011Y022787D01*
X012964Y022813D01*
X012915Y022835D01*
X012864Y022855D01*
X012813Y022871D01*
X012761Y022884D01*
X012707Y022893D01*
X012654Y022898D01*
X012600Y022900D01*
X011894Y024726D02*
X011921Y024773D01*
X011951Y024818D01*
X011984Y024861D01*
X012020Y024901D01*
X012059Y024939D01*
X012100Y024974D01*
X012143Y025007D01*
X012188Y025036D01*
X012236Y025062D01*
X012285Y025085D01*
X012335Y025105D01*
X012386Y025121D01*
X012439Y025134D01*
X012492Y025143D01*
X012546Y025148D01*
X012600Y025150D01*
X011905Y023953D02*
X011935Y023905D01*
X011968Y023860D01*
X012004Y023817D01*
X012042Y023776D01*
X012084Y023739D01*
X012128Y023704D01*
X012174Y023673D01*
X012223Y023644D01*
X012273Y023620D01*
X012325Y023599D01*
X012379Y023581D01*
X012433Y023568D01*
X012488Y023558D01*
X012544Y023552D01*
X012600Y023550D01*
X012653Y023552D01*
X012707Y023557D01*
X012759Y023566D01*
X012811Y023578D01*
X012862Y023594D01*
X012912Y023613D01*
X012961Y023636D01*
X013008Y023662D01*
X013053Y023690D01*
X013096Y023722D01*
X013136Y023756D01*
X013175Y023794D01*
X013211Y023833D01*
X013215Y024862D02*
X013179Y024902D01*
X013140Y024940D01*
X013099Y024975D01*
X013056Y025007D01*
X013011Y025037D01*
X012964Y025063D01*
X012915Y025085D01*
X012864Y025105D01*
X012813Y025121D01*
X012761Y025134D01*
X012707Y025143D01*
X012654Y025148D01*
X012600Y025150D01*
X014405Y021703D02*
X014435Y021655D01*
X014468Y021610D01*
X014504Y021567D01*
X014542Y021526D01*
X014584Y021489D01*
X014628Y021454D01*
X014674Y021423D01*
X014723Y021394D01*
X014773Y021370D01*
X014825Y021349D01*
X014879Y021331D01*
X014933Y021318D01*
X014988Y021308D01*
X015044Y021302D01*
X015100Y021300D01*
X014394Y022476D02*
X014421Y022523D01*
X014451Y022568D01*
X014484Y022611D01*
X014520Y022651D01*
X014559Y022689D01*
X014600Y022724D01*
X014643Y022757D01*
X014688Y022786D01*
X014736Y022812D01*
X014785Y022835D01*
X014835Y022855D01*
X014886Y022871D01*
X014939Y022884D01*
X014992Y022893D01*
X015046Y022898D01*
X015100Y022900D01*
X015711Y021583D02*
X015675Y021544D01*
X015636Y021506D01*
X015596Y021472D01*
X015553Y021440D01*
X015508Y021412D01*
X015461Y021386D01*
X015412Y021363D01*
X015362Y021344D01*
X015311Y021328D01*
X015259Y021316D01*
X015207Y021307D01*
X015153Y021302D01*
X015100Y021300D01*
X015715Y022612D02*
X015679Y022652D01*
X015640Y022690D01*
X015599Y022725D01*
X015556Y022757D01*
X015511Y022787D01*
X015464Y022813D01*
X015415Y022835D01*
X015364Y022855D01*
X015313Y022871D01*
X015261Y022884D01*
X015207Y022893D01*
X015154Y022898D01*
X015100Y022900D01*
X010100Y022900D02*
X010046Y022898D01*
X009992Y022893D01*
X009939Y022884D01*
X009886Y022871D01*
X009835Y022855D01*
X009785Y022835D01*
X009736Y022812D01*
X009688Y022786D01*
X009643Y022757D01*
X009600Y022724D01*
X009559Y022689D01*
X009520Y022651D01*
X009484Y022611D01*
X009451Y022568D01*
X009421Y022523D01*
X009394Y022476D01*
X009405Y021703D02*
X009435Y021655D01*
X009468Y021610D01*
X009504Y021567D01*
X009542Y021526D01*
X009584Y021489D01*
X009628Y021454D01*
X009674Y021423D01*
X009723Y021394D01*
X009773Y021370D01*
X009825Y021349D01*
X009879Y021331D01*
X009933Y021318D01*
X009988Y021308D01*
X010044Y021302D01*
X010100Y021300D01*
X010153Y021302D01*
X010207Y021307D01*
X010259Y021316D01*
X010311Y021328D01*
X010362Y021344D01*
X010412Y021363D01*
X010461Y021386D01*
X010508Y021412D01*
X010553Y021440D01*
X010596Y021472D01*
X010636Y021506D01*
X010675Y021544D01*
X010711Y021583D01*
X010715Y022612D02*
X010679Y022652D01*
X010640Y022690D01*
X010599Y022725D01*
X010556Y022757D01*
X010511Y022787D01*
X010464Y022813D01*
X010415Y022835D01*
X010364Y022855D01*
X010313Y022871D01*
X010261Y022884D01*
X010207Y022893D01*
X010154Y022898D01*
X010100Y022900D01*
X007100Y022900D02*
X007046Y022898D01*
X006992Y022893D01*
X006939Y022884D01*
X006886Y022871D01*
X006835Y022855D01*
X006785Y022835D01*
X006736Y022812D01*
X006688Y022786D01*
X006643Y022757D01*
X006600Y022724D01*
X006559Y022689D01*
X006520Y022651D01*
X006484Y022611D01*
X006451Y022568D01*
X006421Y022523D01*
X006394Y022476D01*
X006405Y021703D02*
X006435Y021655D01*
X006468Y021610D01*
X006504Y021567D01*
X006542Y021526D01*
X006584Y021489D01*
X006628Y021454D01*
X006674Y021423D01*
X006723Y021394D01*
X006773Y021370D01*
X006825Y021349D01*
X006879Y021331D01*
X006933Y021318D01*
X006988Y021308D01*
X007044Y021302D01*
X007100Y021300D01*
X007153Y021302D01*
X007207Y021307D01*
X007259Y021316D01*
X007311Y021328D01*
X007362Y021344D01*
X007412Y021363D01*
X007461Y021386D01*
X007508Y021412D01*
X007553Y021440D01*
X007596Y021472D01*
X007636Y021506D01*
X007675Y021544D01*
X007711Y021583D01*
X007715Y022612D02*
X007679Y022652D01*
X007640Y022690D01*
X007599Y022725D01*
X007556Y022757D01*
X007511Y022787D01*
X007464Y022813D01*
X007415Y022835D01*
X007364Y022855D01*
X007313Y022871D01*
X007261Y022884D01*
X007207Y022893D01*
X007154Y022898D01*
X007100Y022900D01*
X004600Y022900D02*
X004546Y022898D01*
X004492Y022893D01*
X004439Y022884D01*
X004386Y022871D01*
X004335Y022855D01*
X004285Y022835D01*
X004236Y022812D01*
X004188Y022786D01*
X004143Y022757D01*
X004100Y022724D01*
X004059Y022689D01*
X004020Y022651D01*
X003984Y022611D01*
X003951Y022568D01*
X003921Y022523D01*
X003894Y022476D01*
X003905Y021703D02*
X003935Y021655D01*
X003968Y021610D01*
X004004Y021567D01*
X004042Y021526D01*
X004084Y021489D01*
X004128Y021454D01*
X004174Y021423D01*
X004223Y021394D01*
X004273Y021370D01*
X004325Y021349D01*
X004379Y021331D01*
X004433Y021318D01*
X004488Y021308D01*
X004544Y021302D01*
X004600Y021300D01*
X004653Y021302D01*
X004707Y021307D01*
X004759Y021316D01*
X004811Y021328D01*
X004862Y021344D01*
X004912Y021363D01*
X004961Y021386D01*
X005008Y021412D01*
X005053Y021440D01*
X005096Y021472D01*
X005136Y021506D01*
X005175Y021544D01*
X005211Y021583D01*
X005215Y022612D02*
X005179Y022652D01*
X005140Y022690D01*
X005099Y022725D01*
X005056Y022757D01*
X005011Y022787D01*
X004964Y022813D01*
X004915Y022835D01*
X004864Y022855D01*
X004813Y022871D01*
X004761Y022884D01*
X004707Y022893D01*
X004654Y022898D01*
X004600Y022900D01*
X003894Y024726D02*
X003921Y024773D01*
X003951Y024818D01*
X003984Y024861D01*
X004020Y024901D01*
X004059Y024939D01*
X004100Y024974D01*
X004143Y025007D01*
X004188Y025036D01*
X004236Y025062D01*
X004285Y025085D01*
X004335Y025105D01*
X004386Y025121D01*
X004439Y025134D01*
X004492Y025143D01*
X004546Y025148D01*
X004600Y025150D01*
X003905Y023953D02*
X003935Y023905D01*
X003968Y023860D01*
X004004Y023817D01*
X004042Y023776D01*
X004084Y023739D01*
X004128Y023704D01*
X004174Y023673D01*
X004223Y023644D01*
X004273Y023620D01*
X004325Y023599D01*
X004379Y023581D01*
X004433Y023568D01*
X004488Y023558D01*
X004544Y023552D01*
X004600Y023550D01*
X004653Y023552D01*
X004707Y023557D01*
X004759Y023566D01*
X004811Y023578D01*
X004862Y023594D01*
X004912Y023613D01*
X004961Y023636D01*
X005008Y023662D01*
X005053Y023690D01*
X005096Y023722D01*
X005136Y023756D01*
X005175Y023794D01*
X005211Y023833D01*
X005215Y024862D02*
X005179Y024902D01*
X005140Y024940D01*
X005099Y024975D01*
X005056Y025007D01*
X005011Y025037D01*
X004964Y025063D01*
X004915Y025085D01*
X004864Y025105D01*
X004813Y025121D01*
X004761Y025134D01*
X004707Y025143D01*
X004654Y025148D01*
X004600Y025150D01*
X002100Y022900D02*
X002046Y022898D01*
X001992Y022893D01*
X001939Y022884D01*
X001886Y022871D01*
X001835Y022855D01*
X001785Y022835D01*
X001736Y022812D01*
X001688Y022786D01*
X001643Y022757D01*
X001600Y022724D01*
X001559Y022689D01*
X001520Y022651D01*
X001484Y022611D01*
X001451Y022568D01*
X001421Y022523D01*
X001394Y022476D01*
X001405Y021703D02*
X001435Y021655D01*
X001468Y021610D01*
X001504Y021567D01*
X001542Y021526D01*
X001584Y021489D01*
X001628Y021454D01*
X001674Y021423D01*
X001723Y021394D01*
X001773Y021370D01*
X001825Y021349D01*
X001879Y021331D01*
X001933Y021318D01*
X001988Y021308D01*
X002044Y021302D01*
X002100Y021300D01*
X002153Y021302D01*
X002207Y021307D01*
X002259Y021316D01*
X002311Y021328D01*
X002362Y021344D01*
X002412Y021363D01*
X002461Y021386D01*
X002508Y021412D01*
X002553Y021440D01*
X002596Y021472D01*
X002636Y021506D01*
X002675Y021544D01*
X002711Y021583D01*
X002715Y022612D02*
X002679Y022652D01*
X002640Y022690D01*
X002599Y022725D01*
X002556Y022757D01*
X002511Y022787D01*
X002464Y022813D01*
X002415Y022835D01*
X002364Y022855D01*
X002313Y022871D01*
X002261Y022884D01*
X002207Y022893D01*
X002154Y022898D01*
X002100Y022900D01*
X003905Y019453D02*
X003935Y019405D01*
X003968Y019360D01*
X004004Y019317D01*
X004042Y019276D01*
X004084Y019239D01*
X004128Y019204D01*
X004174Y019173D01*
X004223Y019144D01*
X004273Y019120D01*
X004325Y019099D01*
X004379Y019081D01*
X004433Y019068D01*
X004488Y019058D01*
X004544Y019052D01*
X004600Y019050D01*
X003894Y020226D02*
X003921Y020273D01*
X003951Y020318D01*
X003984Y020361D01*
X004020Y020401D01*
X004059Y020439D01*
X004100Y020474D01*
X004143Y020507D01*
X004188Y020536D01*
X004236Y020562D01*
X004285Y020585D01*
X004335Y020605D01*
X004386Y020621D01*
X004439Y020634D01*
X004492Y020643D01*
X004546Y020648D01*
X004600Y020650D01*
X005211Y019333D02*
X005175Y019294D01*
X005136Y019256D01*
X005096Y019222D01*
X005053Y019190D01*
X005008Y019162D01*
X004961Y019136D01*
X004912Y019113D01*
X004862Y019094D01*
X004811Y019078D01*
X004759Y019066D01*
X004707Y019057D01*
X004653Y019052D01*
X004600Y019050D01*
X005215Y020362D02*
X005179Y020402D01*
X005140Y020440D01*
X005099Y020475D01*
X005056Y020507D01*
X005011Y020537D01*
X004964Y020563D01*
X004915Y020585D01*
X004864Y020605D01*
X004813Y020621D01*
X004761Y020634D01*
X004707Y020643D01*
X004654Y020648D01*
X004600Y020650D01*
X007905Y015203D02*
X007935Y015155D01*
X007968Y015110D01*
X008004Y015067D01*
X008042Y015026D01*
X008084Y014989D01*
X008128Y014954D01*
X008174Y014923D01*
X008223Y014894D01*
X008273Y014870D01*
X008325Y014849D01*
X008379Y014831D01*
X008433Y014818D01*
X008488Y014808D01*
X008544Y014802D01*
X008600Y014800D01*
X007894Y015976D02*
X007921Y016023D01*
X007951Y016068D01*
X007984Y016111D01*
X008020Y016151D01*
X008059Y016189D01*
X008100Y016224D01*
X008143Y016257D01*
X008188Y016286D01*
X008236Y016312D01*
X008285Y016335D01*
X008335Y016355D01*
X008386Y016371D01*
X008439Y016384D01*
X008492Y016393D01*
X008546Y016398D01*
X008600Y016400D01*
X009211Y015083D02*
X009175Y015044D01*
X009136Y015006D01*
X009096Y014972D01*
X009053Y014940D01*
X009008Y014912D01*
X008961Y014886D01*
X008912Y014863D01*
X008862Y014844D01*
X008811Y014828D01*
X008759Y014816D01*
X008707Y014807D01*
X008653Y014802D01*
X008600Y014800D01*
X009215Y016112D02*
X009179Y016152D01*
X009140Y016190D01*
X009099Y016225D01*
X009056Y016257D01*
X009011Y016287D01*
X008964Y016313D01*
X008915Y016335D01*
X008864Y016355D01*
X008813Y016371D01*
X008761Y016384D01*
X008707Y016393D01*
X008654Y016398D01*
X008600Y016400D01*
X002100Y014400D02*
X002046Y014398D01*
X001992Y014393D01*
X001939Y014384D01*
X001886Y014371D01*
X001835Y014355D01*
X001785Y014335D01*
X001736Y014312D01*
X001688Y014286D01*
X001643Y014257D01*
X001600Y014224D01*
X001559Y014189D01*
X001520Y014151D01*
X001484Y014111D01*
X001451Y014068D01*
X001421Y014023D01*
X001394Y013976D01*
X001405Y013203D02*
X001435Y013155D01*
X001468Y013110D01*
X001504Y013067D01*
X001542Y013026D01*
X001584Y012989D01*
X001628Y012954D01*
X001674Y012923D01*
X001723Y012894D01*
X001773Y012870D01*
X001825Y012849D01*
X001879Y012831D01*
X001933Y012818D01*
X001988Y012808D01*
X002044Y012802D01*
X002100Y012800D01*
X002153Y012802D01*
X002207Y012807D01*
X002259Y012816D01*
X002311Y012828D01*
X002362Y012844D01*
X002412Y012863D01*
X002461Y012886D01*
X002508Y012912D01*
X002553Y012940D01*
X002596Y012972D01*
X002636Y013006D01*
X002675Y013044D01*
X002711Y013083D01*
X002715Y014112D02*
X002679Y014152D01*
X002640Y014190D01*
X002599Y014225D01*
X002556Y014257D01*
X002511Y014287D01*
X002464Y014313D01*
X002415Y014335D01*
X002364Y014355D01*
X002313Y014371D01*
X002261Y014384D01*
X002207Y014393D01*
X002154Y014398D01*
X002100Y014400D01*
D15*
X014100Y026100D02*
X014100Y027100D01*
X017100Y027100D01*
X017100Y026100D01*
X016600Y026100D01*
X014600Y026100D02*
X014100Y026100D01*
D16*
X014600Y026100D02*
X016600Y026100D01*
X016561Y026045D01*
X016519Y025992D01*
X016474Y025942D01*
X016426Y025894D01*
X016376Y025849D01*
X016323Y025807D01*
X016268Y025768D01*
X016211Y025732D01*
X016152Y025699D01*
X016091Y025670D01*
X016029Y025644D01*
X015965Y025622D01*
X015901Y025603D01*
X015835Y025588D01*
X015768Y025577D01*
X015701Y025569D01*
X015634Y025565D01*
X015566Y025565D01*
X015499Y025569D01*
X015432Y025577D01*
X015365Y025588D01*
X015299Y025603D01*
X015235Y025622D01*
X015171Y025644D01*
X015109Y025670D01*
X015048Y025699D01*
X014989Y025732D01*
X014932Y025768D01*
X014877Y025807D01*
X014824Y025849D01*
X014774Y025894D01*
X014726Y025942D01*
X014681Y025992D01*
X014639Y026045D01*
X014600Y026100D01*
D17*
X003167Y024998D02*
X003167Y024683D01*
X000411Y024683D01*
X000411Y024998D01*
X003167Y024998D01*
X003167Y027439D01*
X000411Y027439D01*
X000411Y024998D01*
M02*
