G75*
G70*
%OFA0B0*%
%FSLAX24Y24*%
%IPPOS*%
%LPD*%
%AMOC8*
5,1,8,0,0,1.08239X$1,22.5*
%
%ADD10OC8,0.0520*%
%ADD11C,0.0560*%
%ADD12OC8,0.0560*%
%ADD13R,0.0760X0.0760*%
%ADD14C,0.0760*%
%ADD15R,0.0800X0.0800*%
%ADD16C,0.0800*%
%ADD17C,0.0160*%
%ADD18C,0.0400*%
%ADD19C,0.0100*%
D10*
X001600Y004850D03*
X002600Y004850D03*
X004100Y008100D03*
X003600Y009100D03*
X004100Y010100D03*
X005100Y010100D03*
X005600Y009100D03*
X005100Y008100D03*
X006600Y009100D03*
X008100Y009100D03*
X009100Y009100D03*
X010600Y009100D03*
X011600Y009100D03*
X012100Y008100D03*
X013100Y008100D03*
X013600Y009100D03*
X013100Y010100D03*
X012100Y010100D03*
X014600Y009100D03*
X014600Y004850D03*
X015600Y004850D03*
X015600Y013600D03*
X014600Y013600D03*
X013100Y019850D03*
X012100Y019850D03*
X012100Y022100D03*
X013100Y022100D03*
X013100Y024350D03*
X012100Y024350D03*
X010600Y022100D03*
X009600Y022100D03*
X007600Y022100D03*
X006600Y022100D03*
X005100Y022100D03*
X004100Y022100D03*
X004100Y019850D03*
X005100Y019850D03*
X002600Y022100D03*
X001600Y022100D03*
X004100Y024350D03*
X005100Y024350D03*
X008100Y015600D03*
X009100Y015600D03*
X014600Y022100D03*
X015600Y022100D03*
X002600Y013600D03*
X001600Y013600D03*
X002600Y009100D03*
D11*
X009600Y025600D03*
D12*
X009600Y026600D03*
X008600Y026600D03*
X008600Y025600D03*
X007600Y025600D03*
X007600Y026600D03*
D13*
X014600Y026600D03*
D14*
X015600Y026600D03*
X016600Y026600D03*
D15*
X001100Y026100D03*
D16*
X002478Y026100D03*
D17*
X002500Y026100D01*
X003780Y024820D01*
X005700Y024820D01*
X005740Y024780D01*
X007540Y026580D01*
X007600Y026600D01*
X009140Y027060D02*
X009600Y026600D01*
X010180Y026020D01*
X016020Y026020D01*
X016600Y026600D01*
X015620Y022100D02*
X015600Y022100D01*
X015620Y022100D02*
X015620Y019860D01*
X013140Y019860D01*
X013100Y019850D01*
X013060Y022100D02*
X013100Y022100D01*
X013060Y022100D02*
X011940Y023220D01*
X011860Y023220D01*
X011820Y023260D01*
X011100Y022540D01*
X011060Y022580D01*
X008100Y022580D01*
X007620Y022100D01*
X007600Y022100D01*
X007540Y022100D01*
X007020Y022620D01*
X006980Y022580D01*
X005620Y022580D01*
X005140Y022100D01*
X005100Y022100D01*
X007020Y022620D02*
X005300Y024340D01*
X005100Y024350D01*
X005140Y024340D01*
X005300Y024340D01*
X005740Y024780D01*
X005100Y024350D02*
X005060Y024340D01*
X004900Y024340D01*
X002660Y022100D01*
X002600Y022100D01*
X002580Y022100D01*
X002580Y013620D01*
X002600Y013600D01*
X005380Y010820D01*
X005380Y010100D01*
X005100Y010100D01*
X005060Y010100D01*
X004020Y009060D01*
X004100Y009060D01*
X005060Y008100D01*
X005100Y008100D01*
X005620Y008100D01*
X006580Y009060D01*
X006600Y009100D01*
X006660Y009140D01*
X007060Y009540D01*
X008660Y009540D01*
X009100Y009100D01*
X009540Y009540D01*
X011140Y009540D01*
X011540Y009140D01*
X011600Y009100D01*
X011620Y009140D01*
X012180Y009140D01*
X013140Y010100D01*
X013100Y010100D01*
X013140Y010100D02*
X013620Y010100D01*
X014580Y009140D01*
X014600Y009100D01*
X015540Y008100D02*
X013100Y008100D01*
X013060Y004500D02*
X014340Y004500D01*
X014660Y004180D01*
X016340Y004180D01*
X015600Y004850D02*
X015540Y004900D01*
X015540Y008100D01*
X015600Y013600D02*
X015620Y013620D01*
X015620Y015460D01*
X009220Y015460D01*
X009140Y015540D01*
X009100Y015600D01*
X010600Y022100D02*
X010660Y022100D01*
X011100Y022540D01*
X011820Y023260D02*
X012900Y024340D01*
X013060Y024340D01*
X013100Y024350D01*
X015620Y019860D02*
X015620Y015460D01*
X009140Y027060D02*
X002100Y027060D01*
X001140Y026100D01*
X001100Y026100D01*
X003600Y009100D02*
X003620Y009060D01*
X004020Y009060D01*
X005380Y006820D02*
X007140Y006820D01*
X007380Y006580D01*
X004820Y002340D02*
X005060Y002100D01*
X012580Y002100D01*
X012740Y002260D01*
D18*
X012740Y002260D03*
X013060Y002660D03*
X012740Y003540D03*
X013060Y004500D03*
X013860Y004100D03*
X014980Y002660D03*
X015380Y002980D03*
X015380Y003700D03*
X016340Y004180D03*
X015060Y007700D03*
X015460Y008900D03*
X015860Y008500D03*
X012100Y006100D03*
X011300Y005780D03*
X011460Y004100D03*
X011300Y003140D03*
X010100Y000900D03*
X009620Y000900D03*
X008740Y000900D03*
X005860Y002500D03*
X004820Y002340D03*
X003540Y004820D03*
X003780Y006820D03*
X003380Y007780D03*
X004660Y007700D03*
X004740Y007220D03*
X004820Y006580D03*
X005380Y006820D03*
X006180Y006340D03*
X006980Y007540D03*
X007380Y006580D03*
X008100Y006340D03*
X008580Y006340D03*
X008900Y007140D03*
X008340Y007540D03*
X007860Y007700D03*
X008900Y008500D03*
X009300Y007940D03*
X009220Y011060D03*
X009700Y011460D03*
X010100Y013540D03*
X009780Y014340D03*
X010580Y016420D03*
X011780Y015060D03*
X013060Y015860D03*
X014980Y014900D03*
X011780Y011460D03*
X012020Y009540D03*
X008260Y012340D03*
X007060Y012740D03*
X007060Y011140D03*
X006100Y009940D03*
X004980Y010660D03*
X004100Y014500D03*
X002980Y014900D03*
X005700Y017380D03*
X006580Y018820D03*
X008100Y018900D03*
X009700Y018980D03*
X010980Y021300D03*
X005540Y022980D03*
X001300Y009300D03*
X001700Y008980D03*
X000980Y005940D03*
X001220Y004420D03*
X002100Y005540D03*
X002180Y003620D03*
X002980Y001860D03*
X000900Y002260D03*
D19*
X000580Y002260D01*
X000580Y002900D01*
X005940Y002900D01*
X006100Y002740D01*
X011380Y002740D01*
X011700Y003060D01*
X015300Y003060D01*
X015380Y002980D01*
X014980Y002660D02*
X014180Y001860D01*
X010580Y001860D01*
X009620Y000900D01*
X010100Y000900D02*
X010820Y001620D01*
X014500Y001620D01*
X016740Y003860D01*
X016740Y011460D01*
X011780Y011460D01*
X011780Y009780D02*
X006420Y009780D01*
X006180Y009540D01*
X006020Y009540D01*
X005620Y009940D01*
X005620Y014500D01*
X004100Y014500D01*
X002980Y014900D02*
X006100Y014900D01*
X006100Y013140D01*
X013220Y013140D01*
X014980Y014900D01*
X013060Y015860D02*
X009940Y018980D01*
X009700Y018980D01*
X008100Y018900D02*
X010580Y016420D01*
X010500Y015060D02*
X011780Y015060D01*
X010500Y015060D02*
X009780Y014340D01*
X010100Y013540D02*
X008500Y015140D01*
X007940Y015140D01*
X005700Y017380D01*
X006580Y018820D02*
X005940Y019460D01*
X004420Y019460D01*
X004100Y019780D01*
X004100Y019850D01*
X004100Y022100D02*
X004500Y022500D01*
X005060Y022500D01*
X005540Y022980D01*
X010980Y021300D02*
X011780Y022100D01*
X012100Y022100D01*
X008420Y012740D02*
X007060Y012740D01*
X008260Y012340D02*
X007060Y011140D01*
X006100Y009940D02*
X006100Y013140D01*
X004980Y010660D02*
X002660Y010660D01*
X001300Y009300D01*
X001700Y008980D02*
X003460Y007220D01*
X004740Y007220D01*
X005460Y007220D01*
X005540Y007140D01*
X008900Y007140D01*
X009300Y007060D02*
X008980Y006740D01*
X008500Y006740D01*
X008100Y006340D01*
X008580Y006340D02*
X008740Y006500D01*
X013860Y006500D01*
X015060Y007700D01*
X015460Y008900D02*
X013300Y011060D01*
X009220Y011060D01*
X009700Y011460D02*
X008420Y012740D01*
X008900Y008500D02*
X015860Y008500D01*
X013860Y004100D02*
X011460Y004100D01*
X011300Y003140D02*
X010020Y004420D01*
X001220Y004420D01*
X000820Y004340D02*
X001140Y004020D01*
X001780Y004020D01*
X002180Y003620D01*
X002100Y005540D02*
X000820Y005540D01*
X000820Y004340D01*
X000580Y002900D02*
X000580Y006020D01*
X000900Y006340D01*
X001060Y006340D01*
X001220Y006180D01*
X006020Y006180D01*
X006180Y006340D01*
X006980Y007540D02*
X007140Y007700D01*
X007860Y007700D01*
X008340Y007540D02*
X009300Y007540D01*
X009300Y007060D01*
X009300Y007940D02*
X009140Y008100D01*
X005940Y008100D01*
X005540Y007700D01*
X004660Y007700D01*
X004100Y008100D02*
X003700Y008100D01*
X003380Y007780D01*
X003780Y006820D02*
X004580Y006820D01*
X004820Y006580D01*
X004100Y005380D02*
X011380Y005380D01*
X012100Y006100D01*
X011300Y005780D02*
X011140Y005940D01*
X000980Y005940D01*
X002980Y001860D02*
X007780Y001860D01*
X008740Y000900D01*
X005860Y002500D02*
X012500Y002500D01*
X012660Y002660D01*
X013060Y002660D01*
X012740Y003540D02*
X012900Y003700D01*
X015380Y003700D01*
X012020Y009540D02*
X011780Y009780D01*
X004100Y005380D02*
X003540Y004820D01*
M02*
