G75*
G70*
%OFA0B0*%
%FSLAX24Y24*%
%IPPOS*%
%LPD*%
%AMOC8*
5,1,8,0,0,1.08239X$1,22.5*
%
%ADD10R,0.0500X0.0220*%
%ADD11R,0.0220X0.0500*%
%ADD12R,0.0787X0.0630*%
%ADD13R,0.0630X0.0787*%
%ADD14OC8,0.0520*%
%ADD15C,0.0560*%
%ADD16OC8,0.0560*%
%ADD17R,0.0760X0.0760*%
%ADD18C,0.0760*%
%ADD19R,0.0800X0.0800*%
%ADD20C,0.0800*%
%ADD21R,0.0709X0.0630*%
%ADD22C,0.0160*%
%ADD23C,0.0400*%
%ADD24C,0.0100*%
D10*
X006910Y002498D03*
X006910Y002813D03*
X006910Y003128D03*
X006910Y003443D03*
X006910Y003757D03*
X006910Y004072D03*
X006910Y004387D03*
X006910Y004702D03*
X010290Y004702D03*
X010290Y004387D03*
X010290Y004072D03*
X010290Y003757D03*
X010290Y003443D03*
X010290Y003128D03*
X010290Y002813D03*
X010290Y002498D03*
D11*
X009702Y001910D03*
X009387Y001910D03*
X009072Y001910D03*
X008757Y001910D03*
X008443Y001910D03*
X008128Y001910D03*
X007813Y001910D03*
X007498Y001910D03*
X007498Y005290D03*
X007813Y005290D03*
X008128Y005290D03*
X008443Y005290D03*
X008757Y005290D03*
X009072Y005290D03*
X009387Y005290D03*
X009702Y005290D03*
D12*
X008600Y010549D03*
X008600Y011651D03*
X006100Y011651D03*
X006100Y010549D03*
X004600Y011549D03*
X004600Y012651D03*
X003100Y011651D03*
X003100Y010549D03*
X003100Y007151D03*
X003100Y006049D03*
X004100Y002651D03*
X004100Y001549D03*
X001600Y001549D03*
X001600Y002651D03*
X011100Y010549D03*
X011100Y011651D03*
X012600Y011549D03*
X012600Y012651D03*
X014100Y011651D03*
X014100Y010549D03*
X014100Y007151D03*
X014100Y006049D03*
X016100Y002651D03*
X016100Y001549D03*
X012100Y017049D03*
X012100Y018151D03*
X010600Y019549D03*
X010600Y020651D03*
X009100Y020651D03*
X009100Y019549D03*
X007600Y019549D03*
X007600Y020651D03*
X002600Y020651D03*
X002600Y019549D03*
X014600Y019549D03*
X014600Y020651D03*
D13*
X014549Y015600D03*
X015651Y015600D03*
X011151Y023600D03*
X010049Y023600D03*
X007151Y023600D03*
X006049Y023600D03*
X003151Y023600D03*
X002049Y023600D03*
X005549Y018100D03*
X006651Y018100D03*
X006651Y015600D03*
X005549Y015600D03*
X002651Y015600D03*
X001549Y015600D03*
D14*
X001600Y013600D03*
X002600Y013600D03*
X004100Y010100D03*
X003600Y009100D03*
X004100Y008100D03*
X005100Y008100D03*
X005600Y009100D03*
X005100Y010100D03*
X006600Y009100D03*
X008100Y009100D03*
X009100Y009100D03*
X010600Y009100D03*
X011600Y009100D03*
X012100Y008100D03*
X013100Y008100D03*
X013600Y009100D03*
X013100Y010100D03*
X012100Y010100D03*
X014600Y009100D03*
X014600Y004850D03*
X015600Y004850D03*
X015600Y013600D03*
X014600Y013600D03*
X013100Y019850D03*
X012100Y019850D03*
X012100Y022100D03*
X013100Y022100D03*
X013100Y024350D03*
X012100Y024350D03*
X010600Y022100D03*
X009600Y022100D03*
X007600Y022100D03*
X006600Y022100D03*
X005100Y022100D03*
X004100Y022100D03*
X004100Y019850D03*
X005100Y019850D03*
X002600Y022100D03*
X001600Y022100D03*
X004100Y024350D03*
X005100Y024350D03*
X008100Y015600D03*
X009100Y015600D03*
X014600Y022100D03*
X015600Y022100D03*
X002600Y009100D03*
X002600Y004850D03*
X001600Y004850D03*
D15*
X009600Y025600D03*
D16*
X009600Y026600D03*
X008600Y026600D03*
X008600Y025600D03*
X007600Y025600D03*
X007600Y026600D03*
D17*
X014600Y026600D03*
D18*
X015600Y026600D03*
X016600Y026600D03*
D19*
X001100Y026100D03*
D20*
X002478Y026100D03*
D21*
X012100Y005151D03*
X012100Y004049D03*
X012100Y002651D03*
X012100Y001549D03*
D22*
X011540Y002020D02*
X012100Y002580D01*
X012100Y002651D01*
X012100Y002660D01*
X012420Y002660D01*
X012460Y002700D01*
X012500Y002660D01*
X012500Y002500D01*
X012740Y002260D01*
X012460Y002700D02*
X013140Y003380D01*
X013140Y004020D01*
X013060Y004020D01*
X013060Y004500D01*
X013060Y004020D02*
X012100Y004020D01*
X012100Y004049D01*
X012100Y005151D02*
X012100Y005220D01*
X013060Y006180D01*
X013060Y008100D01*
X013100Y008100D01*
X013140Y008100D01*
X013140Y010100D01*
X013100Y010100D01*
X016660Y004500D02*
X016340Y004180D01*
X016660Y004500D02*
X016660Y026580D01*
X016600Y026600D01*
X015620Y026580D02*
X015600Y026600D01*
X015620Y026660D01*
X015620Y026580D02*
X015620Y022100D01*
X015600Y022100D01*
X013140Y022100D02*
X013140Y019860D01*
X013100Y019850D01*
X013140Y022100D02*
X013100Y022100D01*
X005140Y022100D02*
X005140Y019860D01*
X005100Y019850D01*
X005140Y022100D02*
X005100Y022100D01*
X003600Y009100D02*
X003540Y009060D01*
X002500Y008020D01*
X002500Y004980D01*
X002580Y004900D01*
X002600Y004850D01*
X004820Y002340D02*
X004100Y001620D01*
X004100Y001549D01*
X006500Y003460D02*
X006500Y003940D01*
X006660Y004100D01*
X006900Y004100D01*
X006910Y004072D01*
X006980Y004100D01*
X007300Y004100D01*
X007340Y004060D01*
X007380Y004100D01*
X007380Y004820D01*
X007220Y004980D01*
X007220Y006420D01*
X007380Y006580D01*
X007340Y004060D02*
X007620Y003780D01*
X010260Y003780D01*
X010290Y003757D01*
X010340Y003780D01*
X010260Y002820D02*
X009860Y002820D01*
X009860Y002340D01*
X010180Y002020D01*
X011540Y002020D01*
X010290Y002813D02*
X010260Y002820D01*
X009860Y002820D02*
X007380Y002820D01*
X007380Y003140D01*
X007380Y003620D01*
X007220Y003780D01*
X006980Y003780D01*
X006910Y003757D01*
X006900Y003460D02*
X006910Y003443D01*
X006980Y003460D01*
X006900Y003460D02*
X006500Y003460D01*
X006910Y003128D02*
X006980Y003140D01*
X007380Y003140D01*
X005380Y006820D02*
X005140Y007060D01*
X005140Y008100D01*
X005100Y008100D01*
D23*
X004660Y007700D03*
X004740Y007220D03*
X004820Y006580D03*
X005380Y006820D03*
X006180Y006340D03*
X006980Y007540D03*
X007380Y006580D03*
X008100Y006340D03*
X008580Y006340D03*
X008900Y007140D03*
X008340Y007540D03*
X007860Y007700D03*
X008900Y008500D03*
X009300Y007940D03*
X009220Y011060D03*
X009700Y011460D03*
X010100Y013540D03*
X009780Y014340D03*
X010580Y016420D03*
X011780Y015060D03*
X013060Y015860D03*
X014980Y014900D03*
X011780Y011460D03*
X012020Y009540D03*
X012100Y006100D03*
X011300Y005780D03*
X011460Y004100D03*
X011300Y003140D03*
X010100Y000900D03*
X009620Y000900D03*
X008740Y000900D03*
X005860Y002500D03*
X004820Y002340D03*
X003540Y004820D03*
X003780Y006820D03*
X003380Y007780D03*
X002100Y005540D03*
X001220Y004420D03*
X000980Y005940D03*
X002180Y003620D03*
X002980Y001860D03*
X000900Y002260D03*
X001700Y008980D03*
X001300Y009300D03*
X004100Y014500D03*
X002980Y014900D03*
X004980Y010660D03*
X006100Y009940D03*
X007060Y011140D03*
X007060Y012740D03*
X008260Y012340D03*
X005700Y017380D03*
X006580Y018820D03*
X008100Y018900D03*
X009700Y018980D03*
X010980Y021300D03*
X005540Y022980D03*
X015060Y007700D03*
X015460Y008900D03*
X015860Y008500D03*
X016340Y004180D03*
X015380Y003700D03*
X015380Y002980D03*
X014980Y002660D03*
X013860Y004100D03*
X013060Y004500D03*
X012740Y003540D03*
X013060Y002660D03*
X012740Y002260D03*
D24*
X001540Y001620D02*
X000900Y002260D01*
X001600Y002651D02*
X001620Y002660D01*
X001620Y004820D01*
X001600Y004850D01*
X001220Y004420D02*
X000580Y005060D01*
X000580Y023060D01*
X003540Y026020D01*
X008020Y026020D01*
X008020Y025380D01*
X006660Y024020D01*
X006660Y023300D01*
X006180Y022820D01*
X006180Y020340D01*
X005060Y019220D01*
X005060Y016100D01*
X005540Y015620D01*
X005549Y015600D01*
X005700Y017380D02*
X005620Y017460D01*
X005620Y018100D01*
X005549Y018100D01*
X006180Y019060D02*
X007300Y020180D01*
X008180Y020180D01*
X008180Y022580D01*
X007220Y023540D01*
X007151Y023600D01*
X006660Y022100D02*
X006600Y022100D01*
X006660Y022100D02*
X006660Y021540D01*
X007540Y020660D01*
X007600Y020651D01*
X007600Y019549D02*
X007620Y019540D01*
X007620Y019380D01*
X008100Y018900D01*
X009100Y019549D02*
X009140Y019540D01*
X009700Y018980D01*
X010180Y019140D02*
X010580Y019540D01*
X010600Y019549D01*
X010180Y019140D02*
X010180Y014260D01*
X008260Y012340D01*
X007700Y012260D02*
X009780Y014340D01*
X010100Y013540D02*
X010100Y006420D01*
X009460Y005780D01*
X009460Y005300D01*
X009387Y005290D01*
X009702Y005290D02*
X009780Y005300D01*
X010660Y006180D01*
X010660Y008580D01*
X011140Y009060D01*
X011140Y009620D01*
X011700Y010180D01*
X011700Y010900D01*
X011460Y011140D01*
X010500Y011140D01*
X010500Y016340D01*
X010580Y016420D01*
X011780Y015060D02*
X012100Y015380D01*
X012100Y017049D01*
X012100Y018151D02*
X012100Y019850D01*
X010980Y020980D02*
X010980Y021300D01*
X010980Y020980D02*
X010660Y020660D01*
X010600Y020651D01*
X009540Y021060D02*
X009540Y022100D01*
X009600Y022100D01*
X009540Y021060D02*
X009140Y020660D01*
X009100Y020651D01*
X008500Y022020D02*
X010020Y023540D01*
X010049Y023600D01*
X010660Y023940D02*
X010660Y022660D01*
X011380Y021940D01*
X011380Y011460D01*
X011100Y011651D01*
X011140Y011620D01*
X011140Y011460D01*
X011380Y011460D01*
X011780Y011460D01*
X012100Y011060D02*
X012100Y010100D01*
X012020Y009540D02*
X012020Y008900D01*
X010900Y007780D01*
X010900Y005300D01*
X010340Y004740D01*
X010290Y004702D01*
X010340Y004420D02*
X010290Y004387D01*
X010340Y004420D02*
X011300Y004420D01*
X011300Y005780D01*
X011540Y005540D02*
X011700Y005700D01*
X011700Y007700D01*
X012100Y008100D01*
X012660Y006660D02*
X012660Y010660D01*
X013140Y011140D01*
X013140Y012100D01*
X012660Y012580D01*
X012600Y012651D01*
X012660Y013540D02*
X014100Y012100D01*
X014100Y011651D01*
X014100Y011620D01*
X014660Y011060D01*
X014660Y010180D01*
X014180Y009700D01*
X014180Y008900D01*
X014660Y008420D01*
X014660Y005700D01*
X014180Y005220D01*
X014180Y004660D01*
X014260Y004580D01*
X014260Y001060D01*
X010820Y001060D01*
X010020Y001860D01*
X009780Y001860D01*
X009702Y001910D01*
X009460Y001860D02*
X009460Y001540D01*
X010100Y000900D01*
X009620Y000900D02*
X009140Y001380D01*
X009140Y001860D01*
X009072Y001910D01*
X008757Y001910D02*
X008740Y001860D01*
X008740Y000900D01*
X008420Y001620D02*
X007620Y000820D01*
X002180Y000820D01*
X002180Y003620D01*
X002980Y003860D02*
X002020Y004820D01*
X002020Y005140D01*
X001380Y005780D01*
X001380Y008820D01*
X001300Y008900D01*
X001300Y009300D01*
X001700Y008980D02*
X001700Y011220D01*
X004500Y014020D01*
X004500Y025540D01*
X007540Y025540D01*
X007600Y025600D01*
X008020Y026020D02*
X008580Y026020D01*
X008580Y025620D01*
X008600Y025600D01*
X009140Y025460D02*
X010660Y023940D01*
X011151Y023600D02*
X011220Y023620D01*
X012100Y023620D01*
X012100Y024350D01*
X012660Y025540D02*
X012660Y013540D01*
X013060Y014580D02*
X013060Y015860D01*
X013060Y014580D02*
X015060Y012580D01*
X015060Y007700D01*
X015460Y007620D02*
X015140Y007300D01*
X015140Y004820D01*
X014980Y004660D01*
X014980Y002660D01*
X015380Y002660D02*
X015380Y002980D01*
X015380Y002660D02*
X016100Y002660D01*
X016100Y002651D01*
X016100Y001620D02*
X016100Y001549D01*
X016100Y001620D02*
X014580Y001620D01*
X014580Y004820D01*
X014600Y004850D01*
X013860Y004100D02*
X013700Y003940D01*
X013700Y002740D01*
X012580Y001620D01*
X012100Y001620D01*
X012100Y001549D01*
X011300Y002500D02*
X011300Y003140D01*
X011220Y003540D02*
X012740Y003540D01*
X013460Y003060D02*
X013060Y002660D01*
X013460Y003060D02*
X013460Y005380D01*
X014100Y006020D01*
X014100Y006049D01*
X013300Y006340D02*
X014100Y007140D01*
X014100Y007151D01*
X013300Y006340D02*
X013300Y005540D01*
X012660Y004900D01*
X012660Y004820D01*
X012500Y004660D01*
X011540Y004660D01*
X011540Y005540D01*
X012100Y006100D02*
X012660Y006660D01*
X013600Y009100D02*
X013620Y009140D01*
X013620Y010020D01*
X014100Y010500D01*
X014100Y010549D01*
X015460Y008900D02*
X015460Y007620D01*
X015860Y008500D02*
X016100Y008740D01*
X016100Y018100D01*
X014660Y019540D01*
X014600Y019549D01*
X014600Y020651D02*
X014660Y020660D01*
X014660Y022100D01*
X014600Y022100D01*
X015060Y022020D02*
X015060Y026180D01*
X014660Y026580D01*
X014600Y026600D01*
X012660Y025540D02*
X009620Y025540D01*
X009600Y025600D01*
X009140Y025460D02*
X009140Y026100D01*
X008660Y026580D01*
X008600Y026600D01*
X006049Y023600D02*
X006020Y023540D01*
X005540Y023060D01*
X005540Y022980D01*
X004100Y023620D02*
X004100Y024350D01*
X004100Y023620D02*
X003220Y023620D01*
X003151Y023600D01*
X002100Y023540D02*
X003620Y022020D01*
X003620Y014980D01*
X004100Y014500D01*
X002980Y014900D02*
X002660Y015220D01*
X002660Y015540D01*
X002651Y015600D01*
X001620Y015540D02*
X001549Y015600D01*
X001620Y015540D02*
X001620Y013620D01*
X001600Y013600D01*
X003100Y011651D02*
X003060Y011620D01*
X002180Y010740D01*
X002180Y005620D01*
X002100Y005540D01*
X003100Y006049D02*
X003140Y006100D01*
X003540Y006100D01*
X004180Y006740D01*
X004180Y007220D01*
X004660Y007700D01*
X004740Y007220D02*
X004420Y006900D01*
X004420Y002980D01*
X004100Y002660D01*
X004100Y002651D01*
X003540Y001060D02*
X003540Y004820D01*
X002980Y003860D02*
X002980Y001860D01*
X003540Y001060D02*
X007540Y001060D01*
X008100Y001620D01*
X008100Y001860D01*
X008128Y001910D01*
X008420Y001860D02*
X008420Y001620D01*
X008420Y001860D02*
X008443Y001910D01*
X007813Y001910D02*
X007780Y001860D01*
X007780Y001620D01*
X007620Y001460D01*
X005220Y001460D01*
X005220Y006180D01*
X004820Y006580D01*
X003780Y006820D02*
X003780Y007860D01*
X003700Y007940D01*
X003700Y008580D01*
X004020Y008900D01*
X004020Y009620D01*
X003700Y009940D01*
X003700Y011700D01*
X004580Y012580D01*
X004600Y012651D01*
X004600Y011549D02*
X004580Y011540D01*
X004100Y011060D01*
X004100Y010100D01*
X004980Y010660D02*
X005940Y011620D01*
X006100Y011620D01*
X006100Y011651D01*
X006100Y010549D02*
X006100Y010500D01*
X005620Y010020D01*
X005620Y009140D01*
X005600Y009100D01*
X005780Y008660D02*
X006100Y008980D01*
X006100Y009940D01*
X005780Y008660D02*
X005780Y003540D01*
X006260Y003060D01*
X006260Y002500D01*
X006900Y002500D01*
X006910Y002498D01*
X006910Y002813D02*
X006900Y002820D01*
X006500Y002820D01*
X006500Y003140D01*
X006180Y003460D01*
X006180Y006340D01*
X006500Y006180D02*
X006580Y006260D01*
X006580Y008500D01*
X007060Y008980D01*
X007060Y011140D01*
X007700Y012260D02*
X007700Y007860D01*
X007860Y007700D01*
X008180Y007540D02*
X007940Y007300D01*
X007460Y007300D01*
X007460Y014340D01*
X008500Y015380D01*
X008500Y022020D01*
X006580Y018820D02*
X006580Y018100D01*
X006651Y018100D01*
X006180Y019060D02*
X006180Y013620D01*
X007060Y012740D01*
X008600Y011651D02*
X008660Y011620D01*
X009220Y011060D01*
X009700Y011460D02*
X009700Y006340D01*
X009140Y005780D01*
X009140Y005300D01*
X009072Y005290D01*
X008820Y005300D02*
X008757Y005290D01*
X008820Y005300D02*
X008820Y005780D01*
X009300Y006260D01*
X009300Y007940D01*
X008900Y007620D02*
X008900Y008500D01*
X008900Y007620D02*
X007540Y006260D01*
X007540Y005300D01*
X007498Y005290D01*
X007813Y005290D02*
X007860Y005300D01*
X007860Y006100D01*
X008100Y006340D01*
X008180Y005940D02*
X008580Y006340D01*
X008980Y006260D02*
X008500Y005780D01*
X008500Y005300D01*
X008443Y005290D01*
X008180Y005300D02*
X008128Y005290D01*
X008180Y005300D02*
X008180Y005940D01*
X008980Y006260D02*
X008980Y007060D01*
X008900Y007140D01*
X008340Y007540D02*
X008180Y007540D01*
X008100Y009100D02*
X008100Y010020D01*
X008580Y010500D01*
X008600Y010549D01*
X006980Y007540D02*
X006980Y004740D01*
X006910Y004702D01*
X006900Y004420D02*
X006910Y004387D01*
X006900Y004420D02*
X006500Y004420D01*
X006500Y006180D01*
X005860Y002500D02*
X005860Y001940D01*
X007460Y001940D01*
X007498Y001910D01*
X009387Y001910D02*
X009460Y001860D01*
X010290Y002498D02*
X010340Y002500D01*
X011300Y002500D01*
X010900Y003140D02*
X010900Y003220D01*
X011220Y003540D01*
X010820Y003460D02*
X011460Y004100D01*
X010820Y003460D02*
X010340Y003460D01*
X010290Y003443D01*
X010340Y003140D02*
X010290Y003128D01*
X010340Y003140D02*
X010900Y003140D01*
X010600Y009100D02*
X010660Y009140D01*
X010660Y010100D01*
X011060Y010500D01*
X011100Y010549D01*
X012100Y011060D02*
X012580Y011540D01*
X012600Y011549D01*
X014600Y013600D02*
X014580Y013620D01*
X014580Y015540D01*
X014549Y015600D01*
X014980Y014900D02*
X015620Y015540D01*
X015651Y015600D01*
X016420Y020660D02*
X015060Y022020D01*
X016420Y020660D02*
X016420Y004740D01*
X015380Y003700D01*
X008100Y015600D02*
X008100Y015620D01*
X006660Y015620D01*
X006651Y015600D01*
X003100Y010549D02*
X003060Y010500D01*
X002660Y010100D01*
X002660Y009140D01*
X002600Y009100D01*
X003380Y007780D02*
X003380Y007460D01*
X003140Y007220D01*
X003100Y007151D01*
X000980Y005940D02*
X000900Y006020D01*
X000900Y017860D01*
X002580Y019540D01*
X002600Y019549D01*
X002600Y020651D02*
X002580Y020660D01*
X001620Y021620D01*
X001620Y022100D01*
X001600Y022100D01*
X002100Y023540D02*
X002049Y023600D01*
X001540Y001620D02*
X001600Y001549D01*
M02*
