G75*
G70*
%OFA0B0*%
%FSLAX24Y24*%
%IPPOS*%
%LPD*%
%AMOC8*
5,1,8,0,0,1.08239X$1,22.5*
%
%ADD10C,0.0000*%
%ADD11C,0.0060*%
%ADD12C,0.0050*%
%ADD13R,0.0200X0.0100*%
%ADD14R,0.0150X0.0050*%
%ADD15R,0.0100X0.0100*%
D10*
X000100Y000100D02*
X000100Y027596D01*
X017470Y027596D01*
X017470Y000100D01*
X000100Y000100D01*
D11*
X007100Y024460D02*
X007100Y024730D01*
X010100Y024730D01*
X010750Y024730D01*
X010750Y025250D01*
X011100Y025250D01*
X011100Y024730D01*
X010750Y024730D01*
X011100Y025250D02*
X011100Y025850D01*
X011100Y026350D01*
X011100Y026950D01*
X010750Y026950D01*
X010750Y027480D01*
X011100Y027480D01*
X011100Y026950D01*
X011100Y026350D02*
X010750Y026350D01*
X010750Y025850D01*
X011100Y025850D01*
X010520Y025740D02*
X010340Y025920D01*
X010340Y025380D01*
X010520Y025380D02*
X010160Y025380D01*
X009770Y025180D02*
X009600Y024850D01*
X009600Y024950D01*
X009600Y024850D02*
X009430Y025180D01*
X009770Y025180D01*
X010100Y024730D02*
X010100Y024460D01*
X007100Y024460D01*
X007100Y024730D02*
X006450Y024730D01*
X006110Y024730D01*
X006110Y025250D01*
X006110Y025850D01*
X006110Y026350D01*
X006110Y026950D01*
X006110Y027480D01*
X006450Y027480D01*
X007100Y027480D01*
X010100Y027480D01*
X010750Y027480D01*
X010100Y027480D02*
X010100Y029850D01*
X008600Y029350D01*
X007100Y029850D01*
X007100Y027480D01*
X006450Y027480D02*
X006450Y026950D01*
X006110Y026950D01*
X006110Y026350D02*
X006450Y026350D01*
X006450Y025850D01*
X006110Y025850D01*
X006110Y025250D02*
X006450Y025250D01*
X006450Y024730D01*
D12*
X007983Y027775D02*
X007983Y028225D01*
X007758Y028225D01*
X007683Y028150D01*
X007683Y028000D01*
X007758Y027925D01*
X007983Y027925D01*
X008144Y027925D02*
X008144Y027850D01*
X008219Y027775D01*
X008369Y027775D01*
X008444Y027850D01*
X008444Y028000D01*
X008219Y028000D01*
X008144Y027925D01*
X008294Y028150D02*
X008144Y028225D01*
X008294Y028150D02*
X008444Y028000D01*
X008604Y027850D02*
X008679Y027775D01*
X008829Y027775D01*
X008904Y027850D01*
X008904Y028150D01*
X008829Y028225D01*
X008679Y028225D01*
X008604Y028150D01*
X009064Y028000D02*
X009365Y028000D01*
X009525Y028000D02*
X009600Y027925D01*
X009825Y027925D01*
X009825Y027775D02*
X009825Y028225D01*
X009600Y028225D01*
X009525Y028150D01*
X009525Y028000D01*
X009675Y027925D02*
X009525Y027775D01*
D13*
X009600Y025060D03*
D14*
X009675Y025135D03*
X009525Y025135D03*
D15*
X009600Y024980D03*
M02*
